<?xml version="1.0" encoding="utf-8"?>
<!-- Generator: Adobe Illustrator 16.0.0, SVG Export Plug-In . SVG Version: 6.00 Build 0)  -->
<!DOCTYPE svg PUBLIC "-//W3C//DTD SVG 1.1//EN" "http://www.w3.org/Graphics/SVG/1.1/DTD/svg11.dtd">
<svg version="1.1" id="Layer_1" xmlns="http://www.w3.org/2000/svg" xmlns:xlink="http://www.w3.org/1999/xlink" x="0px" y="0px"
	 width="121.199px" height="348.681px" viewBox="0 0 121.199 348.681" enable-background="new 0 0 121.199 348.681"
	 xml:space="preserve">
<g>
	<path fill="#FFFFFF" d="M18.507,71.648l-0.535,0.535v35.699c13.298,13.298,51.776,51.776,66.458,66.458
		c-12.821,12.821-51.775,51.775-66.458,66.459v35.699l0.535,0.535c23.21-23.211,82.791-82.792,102.692-102.693
		C112.555,165.696,32.63,85.771,18.507,71.648z"/>
	<path fill="#FFFFFF" d="M46.699,174.34c-9.767-9.767-18.467-18.466-28.192-28.192l-0.535,0.535c0,10.254,0,44.262,0,55.314
		l0.535,0.535C28.229,192.812,36.93,184.109,46.699,174.34z"/>
</g>
<rect fill="none" width="121.199" height="348.681"/>
</svg>
