<?xml version="1.0" encoding="utf-8"?>
<!-- Generator: Adobe Illustrator 16.0.0, SVG Export Plug-In . SVG Version: 6.00 Build 0)  -->
<!DOCTYPE svg PUBLIC "-//W3C//DTD SVG 1.1//EN" "http://www.w3.org/Graphics/SVG/1.1/DTD/svg11.dtd">
<svg version="1.1" xmlns="http://www.w3.org/2000/svg" xmlns:xlink="http://www.w3.org/1999/xlink" x="0px" y="0px" width="612px"
	 height="545.272px" viewBox="0 -7.504 612 545.272" enable-background="new 0 -7.504 612 545.272" xml:space="preserve">
<g id="Capa_1">
	<g>
		<path fill="#028B99" d="M605.531,358.974l-16.419-10.34c-6.472-4.074-15.021-2.133-19.096,4.338
			c-3.623,5.754-2.487,13.154,2.358,17.588L352.436,509.056L39.623,312.079c4.848-4.436,5.982-11.832,2.358-17.59
			c-4.073-6.469-12.625-8.41-19.095-4.338l-16.418,10.34C2.443,303.026,0,307.45,0,312.208s2.441,9.182,6.468,11.717
			l338.589,213.209c2.254,1.42,4.816,2.129,7.379,2.129c2.562,0,5.123-0.709,7.379-2.129l245.718-154.729
			c4.024-2.535,6.468-6.959,6.468-11.717C612,365.933,609.557,361.509,605.531,358.974z"/>
		<path fill="#028B99" d="M605.531,287.901l-16.419-10.338c-6.472-4.076-15.021-2.135-19.096,4.338
			c-3.623,5.754-2.487,13.154,2.358,17.588L352.436,437.985L39.623,241.008c4.848-4.435,5.982-11.832,2.358-17.587
			c-4.073-6.471-12.625-8.413-19.095-4.338l-16.42,10.339C2.443,231.957,0,236.381,0,241.139c0,4.757,2.441,9.181,6.468,11.718
			l338.589,213.207c2.254,1.422,4.816,2.131,7.379,2.131c2.562,0,5.123-0.709,7.379-2.131l245.718-154.727
			c4.024-2.535,6.468-6.959,6.468-11.717C612,294.86,609.557,290.438,605.531,287.901z"/>
		<path fill="#028B99" d="M6.468,181.787l338.589,213.208c2.254,1.418,4.816,2.129,7.379,2.129c2.562,0,5.123-0.711,7.379-2.129
			l245.718-154.728c4.024-2.535,6.468-6.96,6.468-11.717c0-4.758-2.442-9.182-6.468-11.717L266.943,3.625
			c-4.51-2.84-10.246-2.84-14.756,0L6.468,158.353C2.443,160.886,0,165.312,0,170.07S2.443,179.251,6.468,181.787z M259.564,31.704
			L572.168,228.55L352.436,366.917L39.831,170.07L259.564,31.704z"/>
		<path fill="#028B99" d="M6.468,181.787l338.589,213.208c2.254,1.418,4.816,2.129,7.379,2.129c2.562,0,5.123-0.711,7.379-2.129
			l245.718-154.728c4.024-2.535,6.468-6.96,6.468-11.717c0-4.758-2.442-9.182-6.468-11.717L266.943,3.625
			c-4.51-2.84-10.246-2.84-14.756,0L6.468,158.353C2.443,160.886,0,165.312,0,170.07S2.443,179.251,6.468,181.787z"/>
		<path display="none" fill="#00A7C0" d="M6.468,180.787l338.589,213.208c2.254,1.418,4.816,2.129,7.379,2.129
			c2.562,0,5.123-0.711,7.379-2.129l245.718-154.728c4.024-2.535,6.468-6.96,6.468-11.717c0-4.758-2.442-9.182-6.468-11.717
			L266.943,2.625c-4.51-2.84-10.246-2.84-14.756,0L6.468,157.353C2.443,159.886,0,164.312,0,169.07S2.443,178.251,6.468,180.787z"/>
	</g>
	<g display="none">
		<path display="inline" fill="#00A7C0" d="M605.531,349.974l-16.419-10.34c-6.472-4.074-15.021-2.133-19.096,4.338
			c-3.623,5.754-2.487,13.154,2.358,17.588L352.436,500.056L39.623,303.079c4.848-4.436,5.982-11.832,2.358-17.59
			c-4.073-6.469-12.625-8.41-19.095-4.338l-16.418,10.34C2.443,294.026,0,298.45,0,303.208s2.441,9.182,6.468,11.717
			l338.589,213.209c2.254,1.42,4.816,2.129,7.379,2.129c2.562,0,5.123-0.709,7.379-2.129l245.718-154.729
			c4.024-2.535,6.468-6.959,6.468-11.717C612,356.933,609.557,352.509,605.531,349.974z"/>
		<path display="inline" fill="#00A7C0" d="M605.531,278.901l-16.419-10.338c-6.472-4.076-15.021-2.135-19.096,4.338
			c-3.623,5.754-2.487,13.154,2.358,17.588L352.436,428.985L39.623,232.008c4.848-4.435,5.982-11.832,2.358-17.587
			c-4.073-6.471-12.625-8.413-19.095-4.338l-16.42,10.339C2.443,222.957,0,227.381,0,232.139c0,4.757,2.441,9.181,6.468,11.718
			l338.589,213.207c2.254,1.422,4.816,2.131,7.379,2.131c2.562,0,5.123-0.709,7.379-2.131l245.718-154.727
			c4.024-2.535,6.468-6.959,6.468-11.717C612,285.86,609.557,281.438,605.531,278.901z"/>
		<path display="inline" fill="#00A7C0" d="M6.468,172.787l338.589,213.208c2.254,1.418,4.816,2.129,7.379,2.129
			c2.562,0,5.123-0.711,7.379-2.129l245.718-154.728c4.024-2.535,6.468-6.96,6.468-11.717c0-4.758-2.442-9.182-6.468-11.717
			L266.943-5.375c-4.51-2.84-10.246-2.84-14.756,0L6.468,149.353C2.443,151.886,0,156.312,0,161.07S2.443,170.251,6.468,172.787z"/>
	</g>
</g>
<g id="Layer_2">
	<polygon display="none" points="401.959,109.398 210.359,236.239 63.413,154.808 255.014,27.964 	"/>
	<g>
		<path fill="#FFFFFF" d="M395.179,129.477c25.718,15.702,38.348,35.428,29.674,56.82c-8.61,21.205-33.275,32.259-70.444,33.952
			c-8.729,0.397-17.938-0.396-26.881-0.476c-4.152-0.039-8.386,0.033-12.273,0.543c-9.241,1.219-14.033,5.163-16.094,10.469
			c-1.757,4.509-2.906,9.166-4.866,13.626c-10.413,23.697-58.147,29.146-92.941,10.663c-29.562-15.704-30.876-43.053-1.966-53.768
			c8.122-3.01,18.207-4.383,27.409-6.476c2.115-0.476,4.392-0.746,6.493-1.247c11.783-2.809,16.118-7.952,13.88-16.096
			c-1.709-6.213-4.018-12.472-4.706-18.625c-3.771-33.826,46.717-56.525,103.198-46.773
			C362.752,115.042,377.99,120.176,395.179,129.477z"/>
		<path display="none" fill="#00A7C0" d="M395.179,129.477c25.718,15.702,38.348,35.428,29.674,56.82
			c-8.61,21.205-33.275,32.259-70.444,33.952c-8.729,0.397-17.938-0.396-26.881-0.476c-4.152-0.039-8.386,0.033-12.273,0.543
			c-9.241,1.219-14.033,5.163-16.094,10.469c-1.757,4.509-2.906,9.166-4.866,13.626c-10.413,23.697-58.147,29.146-92.941,10.663
			c-29.562-15.704-30.876-43.053-1.966-53.768c8.122-3.01,18.207-4.383,27.409-6.476c2.115-0.476,4.392-0.746,6.493-1.247
			c11.783-2.809,16.118-7.952,13.88-16.096c-1.709-6.213-4.018-12.472-4.706-18.625c-3.771-33.826,46.717-56.525,103.198-46.773
			C362.752,115.042,377.99,120.176,395.179,129.477z"/>
	</g>
</g>
</svg>
