<?xml version="1.0" encoding="utf-8"?>
<!-- Generator: Adobe Illustrator 16.0.0, SVG Export Plug-In . SVG Version: 6.00 Build 0)  -->
<!DOCTYPE svg PUBLIC "-//W3C//DTD SVG 1.1//EN" "http://www.w3.org/Graphics/SVG/1.1/DTD/svg11.dtd">
<svg version="1.1" id="Layer_1" xmlns="http://www.w3.org/2000/svg" xmlns:xlink="http://www.w3.org/1999/xlink" x="0px" y="0px"
	 width="121.199px" height="348.682px" viewBox="0 0 121.199 348.682" enable-background="new 0 0 121.199 348.682"
	 xml:space="preserve">
<rect y="0" fill="none" width="121.199" height="348.682"/>
<g display="none">
	<path display="inline" fill="#FFFFFF" d="M102.691,71.648l0.535,0.535v35.698c-13.297,13.3-51.775,51.777-66.458,66.458
		c12.821,12.821,51.775,51.775,66.458,66.459v35.699l-0.535,0.535C79.482,253.823,19.901,194.242,0,174.34
		C8.645,165.696,88.568,85.771,102.691,71.648z"/>
	<path display="inline" fill="#FFFFFF" d="M74.5,174.34c9.768-9.767,18.467-18.466,28.191-28.191l0.535,0.535
		c0,10.254,0,44.263,0,55.313l-0.535,0.535C92.971,192.812,84.27,184.109,74.5,174.34z"/>
</g>
<g id="Layer_2">
	<circle fill="#FFFFFF" cx="61.613" cy="174.341" r="24.2"/>
</g>
</svg>
