<?xml version="1.0" encoding="utf-8"?>
<!-- Generator: Adobe Illustrator 16.0.0, SVG Export Plug-In . SVG Version: 6.00 Build 0)  -->
<!DOCTYPE svg PUBLIC "-//W3C//DTD SVG 1.1//EN" "http://www.w3.org/Graphics/SVG/1.1/DTD/svg11.dtd">
<svg version="1.1" id="Layer_1" xmlns="http://www.w3.org/2000/svg" xmlns:xlink="http://www.w3.org/1999/xlink" x="0px" y="0px"
	 width="121.199px" height="348.682px" viewBox="0 0 121.199 348.682" enable-background="new 0 0 121.199 348.682"
	 xml:space="preserve">
<rect y="0" fill="none" width="121.199" height="348.682"/>
<g display="none">
	<path display="inline" fill="#FFFFFF" d="M121.199,174.34c-19.9,19.902-79.482,79.483-102.693,102.693l-0.535-0.535v-35.699
		c14.684-14.684,53.638-53.638,66.459-66.459c-14.682-14.681-53.16-53.158-66.457-66.458V72.183l0.535-0.535
		C32.631,85.771,112.555,165.696,121.199,174.34z"/>
	<path display="inline" fill="#FFFFFF" d="M18.508,202.532l-0.535-0.535c0-11.052,0-45.06,0-55.313l0.535-0.535
		c9.725,9.726,18.424,18.425,28.191,28.191C36.93,184.109,28.229,192.812,18.508,202.532z"/>
</g>
<g id="Layer_2">
	<circle fill="#FFFFFF" cx="59.585" cy="174.341" r="24.2"/>
</g>
</svg>
