<?xml version="1.0" encoding="utf-8"?>
<!-- Generator: Adobe Illustrator 16.0.0, SVG Export Plug-In . SVG Version: 6.00 Build 0)  -->
<!DOCTYPE svg PUBLIC "-//W3C//DTD SVG 1.1//EN" "http://www.w3.org/Graphics/SVG/1.1/DTD/svg11.dtd">
<svg version="1.1" xmlns="http://www.w3.org/2000/svg" xmlns:xlink="http://www.w3.org/1999/xlink" x="0px" y="0px"
	 width="1139.499px" height="445px" viewBox="0 0 1139.499 445" enable-background="new 0 0 1139.499 445" xml:space="preserve">
<g id="Layer_1" display="none">
	
		<image display="inline" overflow="visible" width="1899" height="901" xlink:href="58B3B4E8.jpg"  transform="matrix(0.6001 0 0 0.6001 0 0)">
	</image>
</g>
<g id="Layer_7" display="none">
	
		<image display="inline" overflow="visible" width="1920" height="953" xlink:href="58B3B4E9.jpg"  transform="matrix(0.6001 0 0 0.6001 3.0283 -18.4814)">
	</image>
</g>
<g id="Layer_8" display="none">
	
		<image display="inline" overflow="visible" width="1902" height="955" xlink:href="58B3B4EA.jpg"  transform="matrix(0.6001 0 0 0.6001 3.0283 -19.6816)">
	</image>
	<rect x="465" y="-19.682" display="inline" fill="#E6E4DE" width="690.128" height="416.682"/>
</g>
<g id="Layer_9" display="none">
</g>
<g id="Layer_6">
	<rect fill="#E6E4DE" width="1139.499" height="445"/>
</g>
<g id="Layer_2" display="none">
	<path display="inline" fill-rule="evenodd" clip-rule="evenodd" fill="#FFFFFF" d="M434.269,384.603
		c0.539,2.398,1.55,5.493,3.377,6.66c9.357,5.979,17.331,15.251,30.702,12.022"/>
	<path display="inline" fill-rule="evenodd" clip-rule="evenodd" fill="#FFFFFF" d="M433.85,260.625
		c3.139-1.576,6.275-3.152,9.412-4.729c0.799,0.421,1.602,0.839,2.402,1.257c-2.141,3.375-4.282,6.75-5.752,9.068
		c2.79,5.788,7.307,11.136,7.646,16.739c0.654,10.762,0.202,21.941-2.091,32.445c-3.432,15.716-8.874,30.987-13.388,46.471"/>
	<path display="inline" fill-rule="evenodd" clip-rule="evenodd" fill="#FDFEFF" d="M432.079,361.875
		c4.514-15.483,9.956-30.755,13.388-46.471c2.293-10.504,2.745-21.684,2.091-32.445c-0.34-5.603-4.857-10.951-7.646-16.739
		c1.47-2.317,3.611-5.692,5.752-9.068c-0.801-0.418-1.603-0.836-2.402-1.257c-3.137,1.578-6.273,3.154-9.409,4.729"/>
	<path display="inline" fill-rule="evenodd" clip-rule="evenodd" fill="#FDFEFF" d="M468.348,403.285
		c-13.371,3.229-21.344-6.043-30.702-12.022c-1.827-1.167-2.838-4.262-3.377-6.66"/>
	<path display="inline" fill-rule="evenodd" clip-rule="evenodd" fill="#FDFEFF" d="M435.38,244.7
		c2.215-2.681,6.143-5.239,6.345-8.064c0.762-10.631-0.18-21.385,0.564-32.02c0.283-4.061,2.753-8.404,5.34-11.762
		c3.963-5.144,8.186-10.684,13.564-14.002c8.385-5.175,17.525-9.594,26.904-12.57c11.735-3.723,24.139-5.299,36.005-8.674
		c2.409-0.685,3.716-5.25,6.125-8.936c8.208,2.615,13.849,0.415,13.069-11.112c-0.094-1.4,5.439-4.923,7.637-4.399
		c5.714,1.357,8.829-0.928,9.271-5.665c0.9-9.677,7.923-10.17,14.753-10.74c4.438-0.37,8.973,0.432,14.705,0.787
		c-1.441-16.542,7.876-16.99,20.356-15.222c5.962,0.846,13.471-1.016,12.039-10.996c-0.253-1.761,2.526-5.673,3.901-5.671
		c8.487,0.014,16.975,0.864,25.461,1.435c-27.835,16.107-56.372,31.134-83.237,48.723c-16.291,10.668-29.987,25.298-44.848,38.147
		c-28.745,28.274-51.142,60.726-65.035,98.779c-4.599,13.87-7.714,27.769-0.741,41.845c1.737,3.345,0.961,9.717,8.017,6.644
		c-1.203,2.917-2.404,5.835-3.605,8.756c-6.816,14.209-14.083,28.423-11.896,44.857c0.586,4.407,3.64,8.487,5.561,12.717
		c-0.001,0.601,0.172,1.144,0.519,1.632c5.713,7.73,10.497,7.853,19.641,0.504c5.157-2.425,10.717-4.252,15.382-7.403
		c8.396-5.669,16.254-12.135,24.337-18.266c1.243-0.249,2.488-0.498,3.732-0.746c3.213,0.822,6.426,1.645,9.64,2.467
		c1.995,1.124,3.986,2.247,5.981,3.371c2.648,0.691,5.299,1.383,7.947,2.074c4.632,0.766,9.26,1.532,13.891,2.296l0.41,0.313
		c0,0,0.398-0.323,0.403-0.323c10.907,1.068,21.808,2.135,32.711,3.203c16.799-0.391,33.599-0.782,50.396-1.172
		c13.618-1.454,27.246-2.811,40.831-4.505c1.446-0.18,2.644-2.351,3.958-3.598c3.144,0.083,6.288,0.167,9.431,0.25
		c-0.273,10.23-4.759,14.937-16.705,15.409c-8.764,0.347-17.589-0.881-26.389-1.344c-3.601-0.191-7.504-1.167-10.763-0.157
		c-18.575,5.762-37.334,0.922-55.977,1.515c-17.345,0.551-34.819-0.257-51.99,1.707c-6.351,0.728-12.568,7.019-17.838,11.865
		c-9.793,9.003-21.661,8.444-33.401,8.561"/>
	<path display="inline" fill-rule="evenodd" clip-rule="evenodd" fill="#00A7C1" d="M946.01,365.811
		c-9.17,1.293-18.34,2.586-27.507,3.879c-14.596-0.13-29.188-0.258-43.783-0.389c-3.412,0.173-6.823,0.343-10.236,0.514
		c-1.438-0.208-2.876-0.416-4.313-0.625c-1.198-1.185-2.349-3.349-3.605-3.41c-30.265-1.52-60.542-2.815-90.815-4.15
		c-12.412-0.042-24.83-0.085-37.243-0.128c-2.741-0.185-5.483-0.368-8.221-0.549c-1.371-0.781-2.741-1.565-4.113-2.35
		c0.063-0.775,0.125-1.553,0.188-2.327c4.769,0.24,9.536,0.481,15.92,0.806c-8.342-12.383-22.761-9.191-35.594-15.448
		c8.771-1.662,14.323-2.713,19.877-3.765c14.648,10.985,32.188,7.449,48.589,9.569c1.076,0.139,2.271-1.252,3.501-1.562
		c4.761-1.197,9.514-2.854,14.351-3.199c6.679-0.475,14.04,1.871,20.026-0.173c13.02-4.438,25.354-10.889,37.969-16.517
		c5.171,0.563,10.737,0.1,15.428,1.909c8.55,3.3,16.064,5.77,21.931-4.189c0.705-1.199,3.531-1.447,5.418-1.606
		c11.266-0.953,21.924-2.598,31.018-10.806c4.592-4.141,10.163-9.591,18.383-5.601c1.21,0.589,5.182-3.729,7.376-6.216
		c1.494-1.695,1.896-4.302,3.162-6.258c6.69-10.35,17.9-10.249,27.022-11.605c0.639-2.556,1.102-4.403,1.563-6.251
		c11.049,3.06,17.366-13.573,29.459-7.148c0.851,0.453,3.373-2.298,5.147-3.515c7.084-4.863,13.689-10.847,21.437-14.181
		c5.699-2.451,13.444-2.424,13.61,7.857c0.017,1.035,1.05,2.133,1.778,3.07c4.883,6.274,3.012,11.218-3.679,15.386
		c-14.299,8.909-28.181,18.573-32.746,35.667c-3.144,0-7.974-1.183-8.88,0.204c-4.127,6.306-15.034,6.296-15.021,16.324
		c0.001,1.104-2.179,2.199-3.323,3.32c-2.761,2.705-5.507,5.421-8.26,8.13c0.43,0.413,0.862,0.826,1.293,1.24
		c-7.275,3.4-14.552,6.802-21.827,10.202c0.376,0.859,0.753,1.72,1.129,2.58c4.308-0.309,8.611-0.619,13.951-1.003
		c-4.338,2.451-7.55,4.265-10.764,6.08c-2.808,1.385-5.616,2.771-8.425,4.156C946.79,364.427,946.398,365.12,946.01,365.811z"/>
	<path display="inline" fill-rule="evenodd" clip-rule="evenodd" fill="#04A3BA" d="M523.336,173.96
		c14.861-12.849,28.557-27.479,44.848-38.147c26.865-17.589,55.402-32.616,83.237-48.723c29.429-8.897,58.799-17.994,88.322-26.567
		c8.46-2.458,17.357-3.408,26.052-5.049c-2.725,1.942-5.211,4.445-8.219,5.737c-19.978,8.595-40.085,16.889-60.102,25.395
		c-2.952,1.256-5.644,3.119-8.457,4.7c-2.632,2.653-6.793,4.915-7.586,8.034c-1.741,6.857-1.782,14.144-2.518,21.257
		c-2.726,5.374-4.27,12.073-8.452,15.82c-6.664,5.97-15.963,9.044-22.458,15.144c-4.204,3.945-5.547,11.044-7.721,16.897
		c-0.228,0.613,2.676,2.28,3.983,3.601c1.533,1.549,4.386,4.406,4.14,4.722c-6.241,7.997-0.599,15.303,1.013,22.798
		c1.826,12.051,0.468,21.708-14.01,25.539c-5.915,1.563-10.866,17.212-7.089,21.39c6.327,7,5.484,16.173,9.502,23.634
		c1.645,3.049,4.126,5.636,5.966,8.595c2.032,3.267,4.106,6.582,5.52,10.133c1.177,2.963,1.425,6.293,2.086,9.461
		c-9.878-4.604-19.754-9.21-29.632-13.815c-3.709-3.296-7.419-6.593-11.129-9.887c2.484-3.447,4.303-7.832,7.58-10.159
		c8.811-6.255,7.818-12.647,1.788-19.853c-12.031-19.068-28.666-33.26-47.649-44.964c-7.285-4.414-14.567-8.828-21.852-13.242
		c-4.691-2.938-9.382-5.876-14.623-9.156c0.24-0.847,0.747-2.654,0.556-1.975C531.803,174.811,527.569,174.386,523.336,173.96z"/>
	<path display="inline" fill-rule="evenodd" clip-rule="evenodd" fill="#06A3BA" d="M955.606,359.579
		c3.212-1.815,6.424-3.629,10.762-6.08c-5.34,0.384-9.644,0.694-13.951,1.003c-0.376-0.86-0.753-1.721-1.129-2.58
		c7.275-3.4,14.552-6.802,21.827-10.202c-0.431-0.414-0.863-0.827-1.293-1.24c2.753-2.709,5.499-5.425,8.26-8.13
		c1.145-1.121,3.324-2.216,3.323-3.32c-0.014-10.028,10.894-10.019,15.021-16.324c0.906-1.387,5.736-0.204,8.88-0.204
		c4.565-17.094,18.447-26.758,32.746-35.667c6.69-4.168,8.562-9.112,3.679-15.386c-0.729-0.937-1.762-2.035-1.778-3.07
		c-0.166-10.281-7.911-10.308-13.61-7.857c-7.747,3.333-14.353,9.318-21.437,14.181c-1.774,1.217-4.297,3.968-5.147,3.515
		c-12.093-6.425-18.41,10.208-29.459,7.148c-0.461,1.848-0.924,3.695-1.563,6.251c-9.122,1.356-20.332,1.256-27.022,11.605
		c-1.266,1.956-1.668,4.563-3.162,6.258c-2.194,2.487-6.166,6.805-7.376,6.216c-8.22-3.99-13.791,1.46-18.383,5.601
		c-9.094,8.208-19.752,9.853-31.018,10.806c-1.887,0.159-4.713,0.407-5.418,1.606c-5.866,9.959-13.381,7.489-21.931,4.189
		c-4.69-1.81-10.257-1.346-15.428-1.909c0.66-0.659,1.318-1.32,1.979-1.979c1.205-0.521,2.523-1.661,3.599-1.469
		c16.146,2.89,28.876-5.019,41.634-12.911c10.723-6.633,21.063-14.019,32.266-19.71c14.911-7.58,30.335-14.229,45.836-20.547
		c13.104-5.343,25.921-10.929,36.647-20.416c6.154-3.549,12.229-7.249,18.481-10.61c9.571-5.148,19.268-10.063,28.909-15.076
		c1.218-2.409,2.433-4.817,3.65-7.227c0.779,0.056,1.56,0.112,2.342,0.167c0.947,5.54,1.894,11.079,2.841,16.619
		c0.403-0.037,0.807-0.073,1.21-0.11c0-3.224,0-6.449,0-9.674c0.481,0.343,0.981,0.655,1.502,0.935
		c3.589,33.25-4.65,63.787-21.189,92.422c-1.765,0.643-3.798,0.918-5.25,1.987c-12.246,9.005-24.386,18.154-36.556,27.263
		C984.468,350.293,970.037,354.936,955.606,359.579z"/>
	<path display="inline" fill-rule="evenodd" clip-rule="evenodd" fill="#FFFFFF" d="M1061.895,223.979
		c-0.521-0.28-1.021-0.592-1.502-0.935c-1.248-4.71-2.496-9.421-3.745-14.13c-0.681-1.949-1.363-3.894-2.044-5.843
		c-0.677-1.907-1.356-3.817-2.034-5.726c-1.655-4.442-3.31-8.882-4.966-13.325c4.021,4.795,8.04,9.59,11.801,14.077
		c16.41-5.859,12.105-19.733,14.609-31.462c0,14.935,0,29.869,0,44.804C1069.974,215.618,1065.933,219.8,1061.895,223.979z"/>
	<path display="inline" fill-rule="evenodd" clip-rule="evenodd" fill="#6AC7D1" d="M765.749,361.629
		c30.273,1.335,60.551,2.631,90.815,4.15c1.257,0.062,2.407,2.226,3.612,3.41c-12.28-0.526-24.566-1.055-36.854-1.582
		c-2.554,0.029-5.105,0.061-7.659,0.092c-12.643-1.234-25.284-2.471-37.927-3.705C773.74,363.207,769.745,362.418,765.749,361.629z"
		/>
	<path display="inline" fill-rule="evenodd" clip-rule="evenodd" fill="#0D3744" d="M765.749,361.629
		c3.996,0.789,7.991,1.578,11.985,2.365c-0.004,0.981-0.008,1.963-0.012,2.943c-15.161-0.371-30.324-0.724-45.483-1.124
		c-6.47-0.168-12.938-0.437-19.404-0.658c5.225-1.218,10.448-2.437,15.671-3.654C740.919,361.544,753.337,361.587,765.749,361.629z"
		/>
	<path display="inline" fill-rule="evenodd" clip-rule="evenodd" fill="#3BC2D3" d="M998.896,345.651
		c12.173-9.108,24.313-18.258,36.559-27.263c1.452-1.069,3.485-1.345,5.25-1.987c-8.564,8.471-17.126,16.942-25.688,25.413
		c-4.728,1.85-9.458,3.697-14.187,5.547C1000.186,346.791,999.541,346.22,998.896,345.651z"/>
	<path display="inline" fill-rule="evenodd" clip-rule="evenodd" fill="#62C9D7" d="M728.506,361.501
		c-5.223,1.218-10.446,2.437-15.671,3.654c-5.996,0.831-11.991,1.664-17.988,2.499c-3.143-0.083-6.287-0.167-9.438-0.248
		c-1.572-0.008-3.139-0.017-4.705-0.024c2.793-1.311,5.494-3.444,8.402-3.786c10.354-1.212,20.777-1.814,31.174-2.647
		C723.022,361.133,725.765,361.316,728.506,361.501z"/>
	<path display="inline" fill-rule="evenodd" clip-rule="evenodd" fill="#1D414F" d="M946.01,365.811
		c0.389-0.69,0.78-1.384,1.174-2.075c13.242-3.058,26.477-6.116,39.714-9.174c0.084,0.917,0.165,1.832,0.245,2.747
		c-11.285,3.289-22.527,6.741-33.896,9.715C951.089,367.589,948.434,366.264,946.01,365.811z"/>
	<path display="inline" fill-rule="evenodd" clip-rule="evenodd" fill="#1A4654" d="M864.483,369.814
		c3.413-0.171,6.824-0.341,10.236-0.512c3.37,0.691,6.713,1.588,10.118,2.023c5.715,0.731,11.466,1.17,17.203,1.73
		c-17.957-0.402-35.914-0.805-53.871-1.205C853.607,371.172,859.044,370.493,864.483,369.814z"/>
	<path display="inline" fill-rule="evenodd" clip-rule="evenodd" fill="#27515A" d="M777.723,366.938
		c0.004-0.98,0.008-1.962,0.012-2.943c12.646,1.234,25.287,2.471,37.93,3.705c-5.19,0.206-10.389,0.692-15.57,0.553
		C792.631,368.052,785.18,367.398,777.723,366.938z"/>
	<path display="inline" fill-rule="evenodd" clip-rule="evenodd" fill="#1A2A3C" d="M864.483,369.814
		c-5.439,0.679-10.876,1.357-16.313,2.037c-6.81-0.268-13.637-0.338-20.413-0.951c-1.563-0.143-2.957-2.146-4.432-3.295
		c12.285,0.529,24.571,1.058,36.852,1.584C861.607,369.398,863.045,369.606,864.483,369.814z"/>
	<path display="inline" fill-rule="evenodd" clip-rule="evenodd" fill="#598A91" d="M902.041,373.057
		c-5.737-0.561-11.488-0.999-17.203-1.73c-3.405-0.436-6.748-1.332-10.118-2.023c14.595,0.129,29.188,0.257,43.783,0.387
		C913.016,370.812,907.527,371.935,902.041,373.057z"/>
	<path display="inline" fill-rule="evenodd" clip-rule="evenodd" fill="#24475A" d="M987.143,357.309
		c-0.08-0.915-0.161-1.83-0.243-2.745c4.643-2.399,9.287-4.801,13.931-7.202c4.729-1.85,9.459-3.697,14.187-5.547
		C1005.728,346.98,996.433,352.145,987.143,357.309z"/>
	<path display="inline" fill-rule="evenodd" clip-rule="evenodd" fill="#086F6A" d="M1013.001,185.734
		c0.143-0.38,0.214-0.776,0.207-1.183c6.167-2.513,12.629-4.486,18.432-7.667c8.428-4.62,10.65-6.739,15.964,7.136
		c1.656,4.442,3.311,8.882,4.966,13.322c-1.392-0.577-2.784-1.153-4.174-1.729c-0.973-2.421-1.945-4.842-2.989-7.438
		c-4.297,2.947-7.573,5.193-10.852,7.44c-1.51-3.481-3.02-6.962-5.106-11.771c-1.593,0.443-6.354,0.567-6.953,2.208
		c-0.915,2.507,1.046,6.064,1.808,9.27c-3.05,1.368-6.271,2.811-9.494,4.255C1014.207,194.962,1013.604,190.349,1013.001,185.734z"
		/>
	<path display="inline" fill-rule="evenodd" clip-rule="evenodd" fill="#089CB1" d="M621.762,284.515
		c9.878,4.605,19.754,9.212,29.632,13.815l0.02,0.013c0.639,2.621,1.276,5.243,1.915,7.866c-1.009,1.221-2.884,2.439-2.887,3.665
		c-0.021,8.738-3.46,15.439-10.895,20.067c-12.558,7.911-25.29,15.564-37.592,23.858c-5.244,3.534-13.062,6.13-10.136,15.628
		c-9.265,0-18.465-0.288-27.626,0.187c-2.556,0.133-4.993,2.521-7.486,3.872c-4.63-0.764-9.259-1.53-13.891-2.296
		c3.169-1.596,6.362-3.149,9.507-4.795c25.646-13.401,51.426-26.562,76.867-40.347c12.649-6.854,14.051-18.386,4.48-28.662
		C629.687,293.109,625.731,288.806,621.762,284.515z"/>
	<path display="inline" fill-rule="evenodd" clip-rule="evenodd" fill="#089CB1" d="M523.336,173.96
		c4.233,0.426,8.467,0.851,13.096,1.318c0.191-0.679-0.315,1.128-0.556,1.975c5.241,3.28,9.932,6.219,14.623,9.156
		c-2.191-0.688-4.373-1.403-6.572-2.062c-18.291-5.476-20.243-4.735-30.708,11.187c-1.621,2.467-3.743,4.606-5.338,7.088
		c-6.897,10.732-13.685,21.533-20.513,32.312c-0.171,3.466-0.343,6.93-0.515,10.396c1.379,3.185,2.758,6.367,4.138,9.552
		c0.192,2.959,0.386,5.917,0.628,9.655c-3.2-2.258-6.072-4.283-9.034-6.375c-1.162,5.152-2.346,10.408-3.522,15.624
		c-3.651-0.375-6.458-0.663-10.53-1.08c5.802,11.938-7.369,9.95-10.231,17.385c0-6.863,0-12.105,0-17.35
		C472.194,234.686,494.591,202.234,523.336,173.96z"/>
	<path display="inline" fill-rule="evenodd" clip-rule="evenodd" fill="#08A4BA" d="M556.707,373.486
		c2.493-1.352,4.931-3.739,7.486-3.872c9.161-0.475,18.361-0.187,27.626-0.187c-2.926-9.498,4.892-12.094,10.136-15.628
		c12.302-8.294,25.034-15.947,37.592-23.858c3.29,2.628,6.58,5.257,9.872,7.889c-4.146,4.21-8.046,8.713-12.537,12.516
		c-2.445,2.069-5.873,2.995-8.897,4.353c-1.797,0.809-3.67,1.457-5.51,2.177c1.119,1.828,1.889,4.065,3.437,5.401
		c2.97,2.57,6.383,4.632,9.613,6.903c-17.836,0.735-35.672,1.41-53.501,2.25c-3.793,0.179-7.557,0.952-11.333,1.452
		c-4.391,0.196-8.782,0.396-13.175,0.594l-0.398,0.323L556.707,373.486z"/>
	<path display="inline" fill-rule="evenodd" clip-rule="evenodd" fill="#0792A6" d="M499.245,266.505
		c-3.854,5.956-7.708,11.911-11.564,17.87c-0.215-2.657-0.426-5.315-0.636-7.976c-0.82-0.212-1.639-0.422-2.458-0.634
		c-1.438,2.416-2.501,5.191-4.398,7.17c-3.57,3.716-7.085,8.394-11.594,10.094c-7.334,2.767-9.969,6.701-8.848,14.26
		c0.338,2.274-1.398,4.855-2.186,7.295c-6.973-14.076-3.857-27.975,0.741-41.845c0,5.244,0,10.486,0,17.35
		c2.863-7.435,16.033-5.447,10.231-17.385c4.072,0.417,6.879,0.705,10.53,1.08c1.176-5.215,2.36-10.471,3.522-15.624
		c2.962,2.092,5.834,4.117,9.034,6.375c-0.243-3.738-0.436-6.696-0.628-9.655c0.837,0.639,1.676,1.279,2.515,1.917
		C495.418,260.034,497.332,263.269,499.245,266.505z"/>
	<path display="inline" fill-rule="evenodd" clip-rule="evenodd" fill="#0891A2" d="M621.762,284.515
		c3.97,4.291,7.925,8.595,11.909,12.872c9.57,10.276,8.169,21.809-4.48,28.662c-25.44,13.785-51.221,26.945-76.867,40.347
		c-3.146,1.646-6.338,3.199-9.507,4.795c-2.648-0.691-5.299-1.383-7.947-2.074c7.847-3.722,15.399-8.341,23.593-10.993
		c22.744-7.363,43.87-17.702,63.548-31.241c15.518-10.674,16.883-21.312,3.698-32.496c-2.64-1.302-5.279-2.602-7.921-3.903
		c-3.263-2.668-6.524-5.335-9.788-8.003c-0.042-0.66-0.085-1.319-0.128-1.979c0.92-1.958,1.841-3.917,2.761-5.874
		C614.343,277.922,618.053,281.219,621.762,284.515z"/>
	<path display="inline" fill-rule="evenodd" clip-rule="evenodd" fill="#0A90A2" d="M625.709,294.386
		c13.185,11.185,11.819,21.822-3.698,32.496c-19.678,13.539-40.804,23.878-63.548,31.241c-8.194,2.652-15.747,7.271-23.593,10.993
		c-1.995-1.124-3.986-2.247-5.981-3.371c0.675-0.748,1.351-1.495,2.025-2.243c9.223-3.941,18.445-7.88,27.666-11.82
		c8.231-2.65,16.625-4.891,24.647-8.068c7.708-3.053,15.215-6.742,22.464-10.773c6.223-3.459,12.693-7.042,17.699-11.952
		c4.979-4.886,9.686-11.071,3.576-18.961C625.592,300.155,626.08,296.938,625.709,294.386z"/>
	<path display="inline" fill-rule="evenodd" clip-rule="evenodd" fill="#036D6E" d="M530.914,363.502
		c-0.674,0.748-1.35,1.495-2.025,2.243c-3.213-0.822-6.427-1.645-9.643-2.467c19.028-10.462,38.06-20.924,57.089-31.386
		c16.509-7.527,22.101-22.976,27.456-38.417c0.662-1.907-1.203-4.691-1.897-7.069c1.992-1.969,3.984-3.938,5.978-5.906
		c0.044,0.66,0.087,1.319,0.129,1.981c-0.229,7.217,0.817,14.777-0.997,21.571c-2.498,9.341-5.319,18.619-16.813,22.838
		c-8.214,3.012-14.729,10.39-22.422,15.137C555.67,349.487,543.218,356.373,530.914,363.502z"/>
	<path display="inline" fill-rule="evenodd" clip-rule="evenodd" fill="#055754" d="M576.335,331.893
		c-19.029,10.462-38.061,20.924-57.089,31.386c-1.242,0.248-2.486,0.497-3.733,0.748c-0.272-0.754-0.542-1.509-0.811-2.263
		c9.954-6.552,19.141-15.263,30.046-19.127c14.678-5.2,25.245-14.519,35.222-25.319c4.366-4.728,8.144-9.999,12.188-15.025
		C586.885,312.159,581.61,322.026,576.335,331.893z"/>
	<path display="inline" fill-rule="evenodd" clip-rule="evenodd" fill="#0A8E97" d="M457.56,314.584
		c0.787-2.439,2.524-5.021,2.186-7.295c-1.121-7.559,1.514-11.493,8.848-14.26c4.508-1.7,8.024-6.378,11.594-10.094
		c1.897-1.979,2.96-4.754,4.398-7.17c0.82,0.212,1.638,0.422,2.458,0.634c0.21,2.66,0.421,5.318,0.636,7.976
		c-7.379,12.296-14.759,24.597-22.121,36.872C458.521,324.301,459.297,317.929,457.56,314.584z"/>
	<path display="inline" fill-rule="evenodd" clip-rule="evenodd" fill="#21525B" d="M680.704,367.382
		c1.566,0.008,3.133,0.017,4.705,0.024c-1.308,1.245-2.505,3.416-3.951,3.596c-13.585,1.694-27.213,3.051-40.834,4.507
		c-8.28-0.035-16.556-0.071-24.832-0.108c0.024-0.473,0.063-0.943,0.116-1.416c12.578-0.855,25.176-1.525,37.725-2.707
		c2.762-0.262,5.351-2.336,8.02-3.577C668.003,367.595,674.353,367.489,680.704,367.382z"/>
	<path display="inline" fill-rule="evenodd" clip-rule="evenodd" fill="#2B6771" d="M615.906,373.987
		c-0.052,0.47-0.09,0.94-0.114,1.413c-8.52,0.426-17.041,0.853-25.561,1.278c-10.903-1.068-21.804-2.135-32.711-3.203
		c4.388-0.198,8.779-0.397,13.168-0.592C585.76,373.254,600.832,373.621,615.906,373.987z"/>
	<path display="inline" fill-rule="evenodd" clip-rule="evenodd" fill="#3D4E60" d="M590.231,376.679
		c8.52-0.426,17.041-0.853,25.561-1.278c8.276,0.037,16.552,0.073,24.832,0.108C623.83,375.896,607.03,376.288,590.231,376.679z"/>
	<path display="inline" fill-rule="evenodd" clip-rule="evenodd" fill="#0B9CB0" d="M651.394,298.33
		c-0.661-3.168-0.909-6.498-2.086-9.461c-1.413-3.551-3.487-6.866-5.52-10.133c-1.84-2.959-4.321-5.546-5.966-8.595
		c-4.018-7.46-3.175-16.634-9.502-23.634c-3.777-4.177,1.174-19.826,7.089-21.39c14.478-3.831,15.836-13.488,14.01-25.539
		c0.617,0,1.233,0.002,1.851,0.002c0.703,1.31,1.405,2.619,2.108,3.929c1.343,5.247,2.688,10.492,4.029,15.737
		c-2.093,2.862-3.666,6.415-6.38,8.45c-7.235,5.424-10.261,20.6-5.323,28.371c3.555,5.596,6.704,11.446,9.643,16.511
		c4.509,1.391,9.117,2.364,13.299,4.276c2.342,1.07,3.665,4.764,5.98,5.438c10.586,3.073,21.359,5.498,32.065,8.155
		c6.367,2.614,13.024,7.977,19.048,7.341c20.251-2.142,37.756,6.811,56.336,11.35c0.784,0.192,1.143,2.126,1.701,3.249
		c-0.662,0.6-1.324,1.202-1.988,1.801c-8.496-2.105-16.948-5.778-25.497-6.016c-22.657-0.626-44.397-4.68-65.581-12.584
		c-11.907-4.441-24.047-8.251-36.772-12.578c-0.221,2.99-0.383,5.218-0.545,7.446c-0.661,2.629-1.32,5.258-1.979,7.888
		L651.394,298.33z"/>
	<path display="inline" fill-rule="evenodd" clip-rule="evenodd" fill="#079BB0" d="M651.27,199.581
		c-0.617,0-1.233-0.002-1.851-0.002c-1.611-7.496-7.254-14.801-1.013-22.798c0.246-0.316-2.606-3.173-4.14-4.722
		c-1.308-1.321-4.211-2.988-3.983-3.601c2.174-5.854,3.517-12.952,7.721-16.897c6.495-6.1,15.794-9.174,22.458-15.144
		c4.183-3.748,5.727-10.446,8.452-15.82c0.739,3.924,1.477,7.849,2.216,11.774c0.364,2.718,0.729,5.436,1.095,8.153
		c-0.497,3.642,0.31,8.556-1.755,10.666c-4.797,4.91-11.224,8.178-16.49,12.693c-2.695,2.309-4.322,5.866-6.428,8.859
		c-1.502,2.122-3.003,4.241-4.503,6.363c-0.453,5.461-0.909,10.921-1.364,16.382C651.546,196.851,651.407,198.217,651.27,199.581z"
		/>
	<path display="inline" fill-rule="evenodd" clip-rule="evenodd" fill="#EEEDEE" d="M556.59,270.689
		c7.187,4.812,14.373,9.623,22.158,14.834c3.608-2.965,7.568-6.221,11.904-9.783c0.535,1.383,1.02,2.631,1.972,5.082
		c7.12-12.489,20.45-20.263,20.754-36.205c2.21,0,4.417,0,6.623-0.002c6.03,7.206,7.022,13.598-1.788,19.853
		c-3.277,2.328-5.096,6.712-7.58,10.159c-0.92,1.955-1.841,3.914-2.761,5.872c-1.994,1.969-3.986,3.938-5.979,5.906
		c-2.035,1.97-4.07,3.94-6.104,5.91c-3.469,0.345-6.936,0.677-10.403,1.04c-2.993,0.312-5.981,0.656-8.974,0.987
		c-0.739-1.167-1.476-2.332-2.214-3.499C568.328,284.126,562.458,277.409,556.59,270.689z"/>
	<path display="inline" fill-rule="evenodd" clip-rule="evenodd" fill="#00ABC1" d="M680.704,367.382
		c-6.352,0.107-12.701,0.213-19.054,0.317c-8.71,0.491-17.419,0.986-26.126,1.48c-3.23-2.271-6.644-4.333-9.613-6.903
		c-1.548-1.336-2.317-3.573-3.437-5.401c1.84-0.72,3.713-1.368,5.51-2.177c3.024-1.357,6.452-2.283,8.897-4.353
		c4.491-3.803,8.392-8.306,12.537-12.516c6.968-1.161,13.935-2.32,20.527-3.42c-0.146-1.161-0.481-3.802-0.817-6.44
		c9.256,2.602,18.512,5.204,27.765,7.806l0.153-0.137c6.504,0.743,13.01,1.487,19.517,2.229c-5.554,1.052-11.106,2.103-19.877,3.765
		c12.833,6.257,27.252,3.065,35.594,15.448c-6.384-0.324-11.151-0.565-15.92-0.806c-0.063,0.774-0.125,1.552-0.188,2.327
		c1.372,0.784,2.742,1.568,4.113,2.35c-10.401,0.829-20.825,1.432-31.179,2.644C686.198,363.938,683.497,366.071,680.704,367.382z"
		/>
	<path display="inline" fill-rule="evenodd" clip-rule="evenodd" fill="#00A1BB" d="M716.563,337.868
		c-6.507-0.742-13.013-1.486-19.518-2.226c7.831-0.618,15.664-1.241,23.499-1.861c3.083,1.028,6.319,3.23,9.227,2.858
		c8.12-1.04,16.105-3.144,24.144-4.826c0.811,1.332,1.489,3.679,2.452,3.802c2.761,0.35,5.668-0.586,8.46-0.337
		c20.699,1.85,39.709-4.813,58.313-12.294c7.395-2.975,13.454-4.23,19.838,1.024c-0.66,0.658-1.318,1.319-1.979,1.979
		c-12.614,5.628-24.949,12.079-37.969,16.517c-5.986,2.044-13.348-0.302-20.026,0.173c-4.837,0.345-9.59,2.002-14.351,3.199
		c-1.229,0.31-2.425,1.7-3.501,1.562C748.751,345.317,731.212,348.854,716.563,337.868z"/>
	<path display="inline" fill-rule="evenodd" clip-rule="evenodd" fill="#5CC8DA" d="M1000.83,347.361
		c-4.644,2.401-9.288,4.803-13.931,7.202c-13.239,3.056-26.474,6.114-39.716,9.172c2.805-1.385,5.613-2.771,8.421-4.156
		c14.433-4.644,28.863-9.286,43.295-13.928C999.541,346.22,1000.186,346.791,1000.83,347.361z"/>
	<path display="inline" fill-rule="evenodd" clip-rule="evenodd" fill="#039CB5" d="M842.978,324.009
		c-6.384-5.255-12.443-3.999-19.838-1.024c-18.604,7.481-37.613,14.144-58.313,12.294c-2.792-0.249-5.699,0.687-8.46,0.337
		c-0.963-0.123-1.642-2.47-2.452-3.802c11.944-5.215,23.886-10.428,35.825-15.645c1.937,0.726,3.916,2.167,5.807,2.065
		c15.57-0.839,31.115-2.494,46.692-2.854c17.18-0.396,31.855-8.521,47.295-14.146c6.057-2.209,11.128-7.122,16.646-10.802
		c10.842-4.631,21.808-9.004,32.405-14.132c1.843-0.892,2.14-4.973,3.15-7.579c0.653-0.018,1.306-0.036,1.958-0.062
		c5.556-0.58,11.526-0.056,16.591-1.948c14.421-5.393,28.477-11.77,42.675-17.758c-10.727,9.487-23.544,15.073-36.647,20.416
		c-15.501,6.319-30.925,12.967-45.836,20.547c-11.202,5.691-21.543,13.077-32.266,19.71c-12.758,7.893-25.488,15.801-41.634,12.911
		C845.501,322.348,844.183,323.487,842.978,324.009z"/>
	<path display="inline" fill-rule="evenodd" clip-rule="evenodd" fill="#079BB0" d="M1002.959,248.956
		c-14.198,5.989-28.254,12.366-42.675,17.758c-5.064,1.892-11.035,1.368-16.591,1.948c0.661-1.306,1.322-2.609,1.982-3.916
		c17.775-8.556,35.551-17.114,53.328-25.67c0.648-0.008,1.298-0.016,1.947-0.021c11.719-2.905,22.725-7.242,31.625-15.789h-0.003
		c5.928-2.322,11.853-6.623,17.776,0.004c-9.642,5.013-19.338,9.928-28.909,15.076
		C1015.188,241.707,1009.113,245.406,1002.959,248.956z"/>
	<path display="inline" fill-rule="evenodd" clip-rule="evenodd" fill="#0695A8" d="M1050.35,223.27
		c-5.924-6.627-11.849-2.326-17.776-0.004c5.563-8.915,14.595-12.008,24.075-14.352c1.248,4.709,2.496,9.42,3.744,14.13
		c0,3.225,0,6.45,0,9.674c-0.403,0.037-0.807,0.074-1.21,0.11c-0.947-5.54-1.894-11.079-2.841-16.619
		c-0.782-0.056-1.563-0.112-2.342-0.167C1052.782,218.452,1051.567,220.86,1050.35,223.27z"/>
	<path display="inline" fill-rule="evenodd" clip-rule="evenodd" fill="#078084" d="M1048.396,195.613
		c1.39,0.577,2.782,1.153,4.174,1.729c0.678,1.912,1.357,3.821,2.034,5.729c-2.099,0.255-4.442-0.004-6.254,0.856
		c-5.955,2.837-11.863,5.838-17.521,9.227c-7.451,4.465-14.65,9.359-21.958,14.067c-7.896,3.294-15.79,6.59-23.688,9.885
		c-6.588,1.972-13.178,3.945-19.766,5.916c1.957-1.964,3.585-4.569,5.931-5.772c7.546-3.875,15.6-6.788,23.014-10.877
		C1012.504,216.36,1030.399,205.895,1048.396,195.613z"/>
	<path display="inline" fill-rule="evenodd" clip-rule="evenodd" fill="#038990" d="M1008.869,227.222
		c7.309-4.708,14.508-9.602,21.959-14.067c5.658-3.389,11.566-6.39,17.521-9.227c1.812-0.86,4.155-0.602,6.254-0.856
		c0.681,1.949,1.363,3.894,2.044,5.843c-9.479,2.343-18.512,5.437-24.074,14.352h0.003c-5.263,1.321-10.529,2.641-15.795,3.962
		C1014.146,227.226,1011.507,227.224,1008.869,227.222z"/>
	<path display="inline" fill-rule="evenodd" clip-rule="evenodd" fill="#076863" d="M953.726,213.468
		c13.824-6.588,27.65-13.178,41.475-19.767c5.932-2.655,11.864-5.312,17.8-7.967c0.604,4.615,1.207,9.229,1.809,13.845
		c-15.765,7.893-29.212,19.475-47.29,24.035c-13.339,3.364-25.057,13.152-37.492,20.088c-18.484,10.307-36.964,20.622-55.445,30.933
		c-0.002-0.661-0.004-1.323-0.006-1.984c6.056-8.033,12.207-16,18.081-24.166c1.045-1.456,0.927-3.75,1.345-5.655
		c1.595-1.158,3.193-2.313,4.788-3.471C917.101,230.73,935.414,222.099,953.726,213.468z"/>
	<path display="inline" fill-rule="evenodd" clip-rule="evenodd" fill="#EAEEF0" d="M708.657,144.267
		c-3.273,1.333-6.548,2.664-9.821,3.994c-3.073-8.062-5.891-16.238-9.336-24.138c-1.501-3.441-4.288-6.322-6.493-9.457
		c1.182-0.972,2.726-3.015,3.495-2.757C697.563,115.63,708.444,131.751,708.657,144.267z"/>
	<path display="inline" fill-rule="evenodd" clip-rule="evenodd" fill="#D9E6E9" d="M683.007,114.666
		c2.205,3.134,4.992,6.016,6.493,9.457c3.445,7.9,6.263,16.076,9.336,24.138c-3.346,2.604-6.695,5.208-10.042,7.812
		c-2.191-5.185-4.379-10.365-6.569-15.55c-0.366-2.717-0.73-5.435-1.095-8.153C681.755,126.468,682.382,120.565,683.007,114.666z"/>
	<path display="inline" fill-rule="evenodd" clip-rule="evenodd" fill="#027878" d="M1048.396,195.613
		c-17.996,10.282-35.892,20.747-54.034,30.76c-7.414,4.089-15.468,7.001-23.014,10.877c-2.346,1.203-3.974,3.809-5.929,5.772
		c-6.449,2.884-13.033,5.503-19.32,8.701c-21.034,10.695-41.9,21.718-62.955,32.367c-9.955,5.032-20.197,9.495-30.31,14.218
		c18.544-8.255,29.939-26.387,50.468-33.21c20.12-6.686,37.983-19.99,57.152-29.771c11.107-5.668,23.242-9.37,34.188-15.299
		c13.693-7.417,26.643-16.211,39.912-24.411c3.278-2.247,6.555-4.494,10.852-7.44
		C1046.45,190.771,1047.423,193.192,1048.396,195.613z"/>
	<path display="inline" fill-rule="evenodd" clip-rule="evenodd" fill="#026F6B" d="M1034.555,195.616
		c-13.27,8.2-26.219,16.995-39.912,24.411c-10.946,5.929-23.081,9.631-34.188,15.299c-19.169,9.781-37.032,23.085-57.152,29.771
		c-20.528,6.823-31.924,24.955-50.468,33.21c-5.264,0.651-10.529,1.304-15.793,1.955c0.327-0.907,0.386-2.285,1.025-2.659
		c10.969-6.377,22.044-12.569,32.996-18.978c1.453-0.851,2.358-2.637,3.519-3.991c18.481-10.311,36.961-20.626,55.445-30.933
		c12.436-6.937,24.153-16.725,37.492-20.088c18.078-4.56,31.525-16.142,47.29-24.035c3.223-1.445,6.444-2.888,9.494-4.255
		c-0.762-3.206-2.723-6.762-1.808-9.27c0.6-1.641,5.36-1.765,6.953-2.208C1031.535,188.654,1033.045,192.135,1034.555,195.616z"/>
	<path display="inline" fill-rule="evenodd" clip-rule="evenodd" fill="#00AAC3" d="M651.413,298.343
		c0.659-2.63,1.318-5.259,1.979-7.888c3.419,2.549,6.492,6.041,10.329,7.458c8.578,3.17,18.279,3.927,26.158,8.19
		c11.208,6.064,21.177,14.418,31.738,21.698c0.68,0.469,1.91,0.14,2.884,0.182c-21.28,3.739-41.732,3.412-59.416-11.569
		c-1.544-1.308-3.981-1.562-6.002-2.304c-1.237-0.624-2.474-1.247-3.71-1.869c-0.681-2.011-1.363-4.022-2.046-6.032
		C652.689,303.586,652.052,300.964,651.413,298.343z"/>
	<path display="inline" fill-rule="evenodd" clip-rule="evenodd" fill="#05A5B8" d="M653.328,306.209
		c0.683,2.01,1.365,4.021,2.046,6.032c4.584,5.242,9.17,10.485,13.755,15.729c0.336,2.639,0.672,5.279,0.817,6.44
		c-6.593,1.1-13.56,2.259-20.527,3.42c-3.292-2.632-6.582-5.261-9.872-7.889c7.435-4.628,10.874-11.329,10.895-20.067
		C650.444,308.648,652.319,307.43,653.328,306.209z"/>
	<path display="inline" fill-rule="evenodd" clip-rule="evenodd" fill="#31ADB9" d="M635.524,369.18
		c8.707-0.494,17.416-0.989,26.126-1.48c-2.667,1.242-5.256,3.316-8.018,3.578c-12.549,1.182-25.146,1.852-37.725,2.707
		c-15.076-0.363-30.148-0.73-45.22-1.101c3.778-0.502,7.542-1.275,11.335-1.454C599.853,370.59,617.688,369.915,635.524,369.18z"/>
	<path display="inline" fill-rule="evenodd" clip-rule="evenodd" fill="#0A7A80" d="M530.914,363.502
		c12.305-7.129,24.756-14.015,36.854-21.475c7.693-4.747,14.208-12.125,22.422-15.137c11.494-4.219,14.315-13.497,16.813-22.838
		c1.814-6.794,0.768-14.354,0.997-21.571c3.264,2.666,6.525,5.333,9.788,8.001c4.205,20.887-7.408,33.057-23.72,42.302
		c-11.654,6.605-23.647,12.621-35.489,18.897C549.359,355.622,540.136,359.561,530.914,363.502z"/>
	<path display="inline" fill-rule="evenodd" clip-rule="evenodd" fill="#05848E" d="M558.58,351.682
		c11.841-6.276,23.834-12.292,35.489-18.897c16.312-9.245,27.925-21.415,23.72-42.302c2.642,1.302,5.281,2.602,7.921,3.903
		c0.371,2.552-0.117,5.77,1.257,7.541c6.109,7.89,1.403,14.075-3.576,18.961c-5.006,4.91-11.477,8.493-17.699,11.952
		c-7.249,4.031-14.756,7.721-22.464,10.773C575.204,346.791,566.811,349.031,558.58,351.682z"/>
	<path display="inline" fill-rule="evenodd" clip-rule="evenodd" fill="#056161" d="M595.789,292.316
		c2.034-1.97,4.069-3.94,6.104-5.91c0.694,2.378,2.56,5.162,1.897,7.069c-5.355,15.441-10.947,30.89-27.456,38.417
		c5.275-9.866,10.55-19.733,15.824-29.601c0.112-1.3,0.224-2.6,0.337-3.9C593.593,296.367,594.691,294.342,595.789,292.316z"/>
	<path display="inline" fill-rule="evenodd" clip-rule="evenodd" fill="#05424F" d="M592.495,298.394
		c-0.112,1.299-0.224,2.599-0.336,3.898c-4.045,5.026-7.822,10.298-12.188,15.025c-9.977,10.801-20.544,20.119-35.222,25.319
		c-10.905,3.864-20.093,12.575-30.046,19.127c-1.833-0.806-3.665-1.614-5.497-2.418c3.278-3.857,6.553-7.717,9.83-11.579
		c-0.094,1.736-0.192,3.472-0.376,6.839c17.63-18.598,44.7-21.388,59.138-42.646c-2.985-1.522-5.185-2.643-7.38-3.763
		c3.951-0.552,7.906-1.104,11.858-1.657c1.337-1.337,2.675-2.674,4.012-4.008C588.354,301.152,590.427,299.772,592.495,298.394z"/>
	<path display="inline" fill-rule="evenodd" clip-rule="evenodd" fill="#00A7BD" d="M724.502,327.983
		c-0.974-0.042-2.204,0.287-2.884-0.182c-10.562-7.28-20.53-15.634-31.738-21.698c-7.879-4.264-17.58-5.021-26.158-8.19
		c-3.837-1.417-6.91-4.909-10.329-7.458c0.162-2.229,0.324-4.456,0.545-7.446c12.726,4.327,24.865,8.137,36.772,12.578
		c21.184,7.904,42.924,11.958,65.581,12.584c8.549,0.237,17.001,3.91,25.497,6.016C763.951,324.01,744.403,326.727,724.502,327.983z
		"/>
	<path display="inline" fill-rule="evenodd" clip-rule="evenodd" fill="#058D9E" d="M657.407,219.246
		c0.645,1.356,1.29,2.712,1.936,4.066c-0.041,2.65-0.08,5.302-0.118,7.953c-5.02,10.029-4.398,27.597,0.908,31.831
		c5.405,4.315,10.39,9.175,15.948,13.268c2.626,1.933,6.157,2.633,9.279,3.89c2.514,0.082,5.028,0.161,7.545,0.242
		c12.759,6.536,26.428,9.953,40.503,7.516c16.072-2.782,31.944-2.964,46.763,3.351c6.193,2.641,17.272,1.24,17.357,12.933
		c-0.656,0.637-1.313,1.275-1.972,1.912c-0.698-1.222-1.218-3.339-2.123-3.519c-6.099-1.207-12.3-1.873-18.425-2.962
		c-13.204-2.351-26.325-5.249-39.592-7.151c-9.481-1.359-19.146-1.463-28.726-2.128c-10.706-2.657-21.479-5.082-32.065-8.155
		c-2.315-0.674-3.639-4.367-5.98-5.438c-4.182-1.912-8.79-2.886-13.299-4.276c-2.938-5.064-6.088-10.915-9.643-16.511
		c-4.938-7.771-1.912-22.946,5.323-28.371C653.741,225.661,655.314,222.108,657.407,219.246z"/>
	<path display="inline" fill-rule="evenodd" clip-rule="evenodd" fill="#0997A6" d="M706.691,290.446
		c9.58,0.665,19.244,0.769,28.726,2.128c13.267,1.902,26.388,4.801,39.592,7.151c6.125,1.089,12.326,1.755,18.425,2.962
		c0.905,0.18,1.425,2.297,2.123,3.519c0.01,0.694,0.019,1.389,0.028,2.083c-1.328,0.634-2.659,1.269-3.988,1.904
		c-2.608,0.731-5.212,1.461-7.82,2.192c-0.559-1.123-0.917-3.057-1.701-3.249c-18.58-4.539-36.085-13.491-56.336-11.35
		C719.716,298.423,713.059,293.061,706.691,290.446z"/>
	<path display="inline" fill-rule="evenodd" clip-rule="evenodd" fill="#39C2D6" d="M783.776,312.386
		c2.608-0.731,5.212-1.461,7.82-2.192c-0.509,1.161-1.02,2.323-1.529,3.484c-13.011,4.822-25.833,10.279-39.096,14.253
		c-9.844,2.949-20.265,3.97-30.427,5.851c-7.835,0.62-15.668,1.243-23.499,1.861c0.001-0.004-0.152,0.133-0.152,0.133
		c-2.2-1.292-4.256-3.213-6.627-3.771c-12.223-2.872-23.664-6.905-31.183-17.895c2.021,0.742,4.458,0.996,6.002,2.304
		c17.684,14.981,38.136,15.309,59.416,11.569c19.901-1.257,39.449-3.974,57.286-13.797
		C782.452,313.588,783.114,312.985,783.776,312.386z"/>
	<path display="inline" fill-rule="evenodd" clip-rule="evenodd" fill="#118A97" d="M682.225,140.523
		c2.19,5.185,4.378,10.365,6.569,15.55c-13.898-0.974-21.73,9.417-31.242,16.668c2.105-2.993,3.732-6.55,6.428-8.859
		c5.267-4.515,11.693-7.783,16.49-12.693C682.534,149.079,681.728,144.165,682.225,140.523z"/>
	<path display="inline" fill-rule="evenodd" clip-rule="evenodd" fill="#D5DFE3" d="M586.286,302.531
		c-3.291-2.729-6.584-5.459-9.875-8.188c2.993-0.331,5.981-0.676,8.975-0.987c3.468-0.363,6.935-0.695,10.403-1.04
		c-1.098,2.025-2.196,4.051-3.293,6.075C590.427,299.772,588.354,301.152,586.286,302.531z"/>
	<path display="inline" fill-rule="evenodd" clip-rule="evenodd" fill="#06696D" d="M659.084,314.11
		c7.519,10.989,18.96,15.022,31.183,17.895c2.371,0.558,4.427,2.479,6.627,3.771c-9.253-2.602-18.509-5.204-27.765-7.806
		c-4.585-5.243-9.171-10.486-13.755-15.729C656.61,312.863,657.847,313.486,659.084,314.11z"/>
	<path display="inline" fill-rule="evenodd" clip-rule="evenodd" fill="#06646C" d="M720.545,333.781
		c10.162-1.881,20.583-2.901,30.427-5.851c13.263-3.974,26.085-9.431,39.092-14.249c-0.108,0.831-0.216,1.659-0.323,2.487
		c-11.939,5.217-23.881,10.43-35.825,15.645c-8.038,1.683-16.023,3.786-24.144,4.826
		C726.864,337.012,723.628,334.81,720.545,333.781z"/>
	<path display="inline" fill-rule="evenodd" clip-rule="evenodd" fill="#0295AB" d="M789.74,316.169
		c0.107-0.828,0.215-1.656,0.323-2.487c0.514-1.165,1.024-2.327,1.533-3.488c1.329-0.636,2.66-1.271,3.988-1.906
		c15.697,0.628,31.438,2.22,47.068,1.49c8.11-0.377,16.022-4.862,24.024-7.491c2.476-0.508,5.218-0.489,7.383-1.601
		c18.003-9.239,35.899-18.685,53.828-28.066c-2.041,2.579-3.678,5.685-6.213,7.623c-4.898,3.746-10.302,6.832-15.496,10.191
		c-5.518,3.68-10.589,8.593-16.646,10.802c-15.439,5.625-30.115,13.75-47.295,14.146c-15.577,0.359-31.122,2.015-46.692,2.854
		C793.656,318.336,791.677,316.895,789.74,316.169z"/>
	<path display="inline" fill-rule="evenodd" clip-rule="evenodd" fill="#078992" d="M927.889,272.619
		c-17.929,9.382-35.825,18.827-53.828,28.066c-2.165,1.111-4.907,1.093-7.383,1.601c-0.666-0.007-1.334-0.014-1.999-0.021
		c2.781-2.687,5.142-6.139,8.416-7.931c17.293-9.473,34.71-18.733,52.287-27.667c19.824-10.075,39.859-19.726,59.801-29.561
		c7.897-3.294,15.791-6.59,23.688-9.885c2.637,0.002,5.276,0.004,7.911,0.006c-5.277,3.942-10.553,7.885-15.83,11.827
		c-0.649,0.006-1.299,0.013-1.947,0.021c-6.103,2.112-12.526,3.585-18.24,6.469c-11.895,6.006-23.414,12.757-35.088,19.201
		c-0.66,1.306-1.321,2.61-1.982,3.916c-0.652,0.025-1.305,0.044-1.958,0.062C937.119,270.022,932.504,271.319,927.889,272.619z"/>
	<path display="inline" fill-rule="evenodd" clip-rule="evenodd" fill="#079BB0" d="M927.889,272.619
		c4.615-1.3,9.23-2.597,13.847-3.896c-1.011,2.606-1.308,6.687-3.15,7.579c-10.598,5.128-21.563,9.501-32.405,14.132
		c5.194-3.359,10.598-6.445,15.496-10.191C924.211,278.304,925.848,275.198,927.889,272.619z"/>
	<path display="inline" fill-rule="evenodd" clip-rule="evenodd" fill="#0491A0" d="M945.676,264.746
		c11.674-6.444,23.193-13.195,35.088-19.201c5.714-2.884,12.138-4.357,18.24-6.469C981.227,247.632,963.451,256.19,945.676,264.746z
		"/>
	<path display="inline" fill-rule="evenodd" clip-rule="evenodd" fill="#0695A8" d="M1000.951,239.055
		c5.277-3.942,10.553-7.885,15.83-11.827c5.266-1.321,10.532-2.641,15.795-3.962C1023.676,231.813,1012.67,236.15,1000.951,239.055z
		"/>
	<path display="inline" fill-rule="evenodd" clip-rule="evenodd" fill="#038188" d="M985.183,237.106
		c-19.941,9.835-39.977,19.485-59.801,29.561c-17.577,8.934-34.994,18.194-52.287,27.667c-3.274,1.792-5.635,5.244-8.416,7.931
		c-2.602,0.112-5.495-0.49-7.759,0.443c-19.234,7.932-38.271,0.411-57.379-0.418c5.265-1.298,10.527-2.596,15.793-3.896
		c7.234,0.624,14.47,1.246,21.707,1.869c5.264-0.651,10.529-1.304,15.793-1.955c10.112-4.723,20.354-9.186,30.31-14.218
		c21.055-10.648,41.921-21.671,62.955-32.367c6.287-3.198,12.871-5.817,19.32-8.701
		C972.005,241.052,978.595,239.078,985.183,237.106z"/>
	<path display="inline" fill-rule="evenodd" clip-rule="evenodd" fill="#146368" d="M695.204,235.099
		c-0.899,6.513-1.8,13.027-2.698,19.538c-0.565-1.861-1.131-3.72-1.695-5.578c0.016-6.058-0.323-12.149,0.209-18.164
		c0.233-2.644,2.238-5.131,3.438-7.691C694.706,227.167,694.954,231.133,695.204,235.099z"/>
	<path display="inline" fill-rule="evenodd" clip-rule="evenodd" fill="#055F58" d="M894.001,242.83
		c-0.418,1.905-0.3,4.199-1.345,5.655c-5.874,8.166-12.025,16.132-18.081,24.166c-10.414,5.821-21.218,11.052-31.122,17.639
		c-9.057,6.022-18,7.852-28.126,4.095c24.028,3.479,29.41-18.049,41.239-30.885c0.449-0.488-0.183-1.973-0.311-2.993
		C868.838,254.612,881.42,248.722,894.001,242.83z"/>
	<path display="inline" fill-rule="evenodd" clip-rule="evenodd" fill="#076863" d="M815.327,294.384
		c10.126,3.757,19.069,1.928,28.126-4.095c9.904-6.587,20.708-11.817,31.122-17.639c0.002,0.661,0.004,1.323,0.006,1.984
		c-1.16,1.354-2.065,3.141-3.519,3.991c-10.952,6.408-22.027,12.601-32.996,18.978c-0.64,0.374-0.698,1.752-1.025,2.659
		c-7.237-0.623-14.473-1.245-21.707-1.869c-5.974-1.968-12.308-3.234-17.825-6.081c-6.532-3.374-12.097-11.083-18.552-11.662
		c-15.301-1.372-31.217-1.433-46.23,1.418c-11.338,2.154-21.482,3.387-31.975-1.488c10.47,2.181,20.062-0.949,30.104-3.661
		c17.362-4.689,35.206-3.422,52.846-0.278c5.27,3.283,10.54,6.565,15.811,9.849C804.783,289.12,810.055,291.753,815.327,294.384z"/>
	<path display="inline" fill-rule="evenodd" clip-rule="evenodd" fill="#05404E" d="M692.949,256.597
		c4.249,0.074,8.771,1.113,12.687,0.01c7.288-2.051,15.442-3.868,21.034-8.462c9.752-8.01,19.197-6.009,29.365-2.962
		c3.033,2.442,5.87,5.188,9.127,7.277c15.451,9.901,30.008,22.096,50.158,20.549c1.984,0.884,3.97,1.768,5.43,2.417
		c-3.598,1.869-7.303,4.55-11.435,5.699c-3.222,0.896-8.06,1.266-10.316-0.503c-15.507-12.17-32.815-20.619-52.045-23.923
		c-8.013-1.377-20.635-1.814-24.344,2.799c-8.832,10.986-18.696,11.43-30.578,9.945c-0.819-1.937-1.796-4.244-2.77-6.55
		c-1.007-1.093-2.013-2.187-2.989-3.246C688.565,258.599,690.759,257.598,692.949,256.597z"/>
	<path display="inline" fill-rule="evenodd" clip-rule="evenodd" fill="#054C51" d="M689.263,262.893
		c0.974,2.307,1.95,4.614,2.77,6.55c11.882,1.485,21.746,1.042,30.578-9.945c3.709-4.613,16.331-4.176,24.344-2.799
		c19.229,3.304,36.538,11.752,52.045,23.923c2.257,1.769,7.095,1.398,10.316,0.503c4.132-1.149,7.837-3.83,11.435-5.699
		c-1.46-0.649-3.445-1.533-5.43-2.417c7.832-1.47,15.667-2.941,23.5-4.411c-0.364,1.196-0.346,2.907-1.153,3.507
		c-6.065,4.515-12.292,8.811-18.467,13.176c0.471,0.721,0.946,1.442,1.421,2.164c-7.035-0.318-14.074-0.637-21.109-0.955
		c-5.271-3.283-10.541-6.565-15.811-9.849c-4.167-2.096-8.264-4.352-12.518-6.258c-13.809-6.195-28.658-6.149-41.951-1.088
		c-13.553,5.158-26.286,9.29-40.605,5.24C688.839,270.654,689.052,266.774,689.263,262.893z"/>
	<path display="inline" fill-rule="evenodd" clip-rule="evenodd" fill="#015953" d="M688.627,274.534
		c14.319,4.05,27.053-0.082,40.605-5.24c13.293-5.061,28.143-5.107,41.951,1.088c4.254,1.907,8.351,4.163,12.518,6.258
		c-17.64-3.144-35.483-4.411-52.846,0.278c-10.042,2.712-19.634,5.842-30.104,3.661c-2.613-0.029-5.229-0.057-7.847-0.085
		c-2.517-0.081-5.031-0.16-7.549-0.237c-0.116-1.202-0.229-2.403-0.34-3.607C686.221,275.945,687.423,275.24,688.627,274.534z"/>
	<path display="inline" fill-rule="evenodd" clip-rule="evenodd" fill="#097F87" d="M659.225,231.265
		c1.359,6.536,2.718,13.073,4.081,19.61c4.453,4.206,8.905,8.413,13.655,12.9c2.44,3.9,5.246,8.386,8.053,12.874
		c0.114,1.206,0.227,2.407,0.343,3.609c-3.118-1.262-6.649-1.962-9.275-3.895c-5.559-4.093-10.543-8.953-15.948-13.268
		C654.826,258.861,654.205,241.294,659.225,231.265z"/>
	<path display="inline" fill-rule="evenodd" clip-rule="evenodd" fill="#04777B" d="M692.905,280.495
		c2.617,0.028,5.233,0.056,7.847,0.085c10.492,4.875,20.637,3.643,31.975,1.488c15.014-2.851,30.93-2.79,46.23-1.418
		c6.455,0.579,12.02,8.288,18.552,11.662c5.518,2.847,11.852,4.113,17.825,6.081c-5.266,1.301-10.528,2.599-15.794,3.896
		c-0.669,0.67-1.341,1.336-2.012,2.004c-0.085-11.692-11.164-10.292-17.357-12.933c-14.818-6.314-30.69-6.133-46.763-3.351
		C719.333,290.448,705.664,287.031,692.905,280.495z"/>
	<path display="inline" fill-rule="evenodd" clip-rule="evenodd" fill="#088499" d="M797.528,304.294
		c0.671-0.668,1.343-1.334,2.012-2.004c19.108,0.829,38.146,8.35,57.38,0.418c2.264-0.934,5.157-0.331,7.759-0.443
		c0.665,0.008,1.333,0.015,1.999,0.021c-8.002,2.629-15.914,7.114-24.024,7.491c-15.631,0.729-31.371-0.862-47.068-1.49
		c-0.01-0.692-0.019-1.387-0.028-2.081C796.215,305.569,796.872,304.931,797.528,304.294z"/>
	<path display="inline" fill-rule="evenodd" clip-rule="evenodd" fill="#045652" d="M838.82,268.598
		c3.376-1.932,6.751-3.865,10.129-5.797c2.437-0.766,4.87-1.53,7.307-2.295c0.128,1.02,0.76,2.505,0.311,2.993
		c-11.829,12.836-17.211,34.365-41.239,30.885c-5.272-2.631-10.544-5.264-15.815-7.895c7.035,0.318,14.074,0.637,21.109,0.955
		c-0.475-0.722-0.95-1.443-1.421-2.164c6.175-4.365,12.401-8.661,18.467-13.176C838.475,271.505,838.456,269.794,838.82,268.598z"/>
</g>
<g id="Layer_3">
	<g>
		<path fill="#FFFFFF" d="M795.693,72.908c-12.191,29.278-32.4,42.562-63.927,41.293c-5.601-0.214-11.148-1.376-16.75-1.684
			c-24.403-1.335-49.205-5.851-73.171-3.125c-85.378,9.695-139.813,102.379-108.406,181.639
			c36.962,93.281,152.237,118.236,224.54,48.367c13.621-13.152,25.872-27.679,39.151-41.171
			c15.595-15.896,34.268-24.751,56.95-20.476c9.526,1.81,18.876,5.418,27.823,9.285c19.3,8.373,37.671,19.335,57.502,25.892
			c73.863,24.475,141.917,16.293,200.093-28.46V0h-311.44c-1.219,2.09-2.417,4.2-3.572,6.349
			C813.084,27.561,804.994,50.586,795.693,72.908z"/>
	</g>
</g>
<g id="SUPERLIJM" display="none">
	
		<text transform="matrix(0.9974 -0.0725 0.0725 0.9974 578.1377 277.2344)" display="inline" fill="#FFFFFF" font-family="'TwCenMT-Condensed'" font-size="168">SUPERLIJM</text>
</g>
</svg>
