<?xml version="1.0" encoding="utf-8"?>
<!-- Generator: Adobe Illustrator 16.0.0, SVG Export Plug-In . SVG Version: 6.00 Build 0)  -->
<!DOCTYPE svg PUBLIC "-//W3C//DTD SVG 1.1//EN" "http://www.w3.org/Graphics/SVG/1.1/DTD/svg11.dtd">
<svg version="1.1" xmlns="http://www.w3.org/2000/svg" xmlns:xlink="http://www.w3.org/1999/xlink" x="0px" y="0px"
	 width="1139.499px" height="416px" viewBox="0 0 1139.499 416" enable-background="new 0 0 1139.499 416" xml:space="preserve">
<g id="Layer_6">
	<rect fill="#FFFFFF" width="1139.499" height="416"/>
</g>
<g id="Layer_3">
	<g>
		<path fill="#00A7C1" d="M939.406,312.928c-19.831-6.557-38.202-17.519-57.502-25.892c-8.947-3.867-18.297-7.476-27.823-9.285
			c-22.683-4.275-41.355,4.579-56.95,20.476c-13.279,13.492-25.53,28.019-39.151,41.171
			c-72.303,69.869-187.578,44.914-224.54-48.367c-31.407-79.26,23.028-171.944,108.406-181.639
			c23.966-2.725,48.768,1.79,73.171,3.125c5.602,0.308,11.149,1.47,16.75,1.684c31.526,1.269,51.735-12.015,63.927-41.293
			c9.301-22.322,17.391-45.347,28.793-66.559C825.642,4.2,826.84,2.09,828.059,0h-4.976c-10.021,20.395-17.795,42.009-26.557,63.048
			c-13.171,31.631-35.022,45.995-69.091,44.629c-6.047-0.241-12.051-1.497-18.099-1.826c-26.383-1.435-53.188-6.321-79.094-3.38
			c-92.276,10.478-151.105,110.648-117.164,196.316c39.953,100.825,164.551,127.795,242.698,52.283
			c14.706-14.211,27.955-29.913,42.301-44.512c16.866-17.166,37.042-26.753,61.548-22.114c10.306,1.955,20.401,5.842,30.082,10.035
			c20.856,9.037,40.706,20.871,62.151,27.978c68.016,22.541,131.459,19.454,187.64-11.866v-26.123
			C1081.323,329.221,1013.27,337.402,939.406,312.928z"/>
		<path fill="#038C99" d="M795.693,72.908c-12.191,29.278-32.4,42.562-63.927,41.293c-5.601-0.214-11.148-1.376-16.75-1.684
			c-24.403-1.335-49.205-5.851-73.171-3.125c-85.378,9.695-139.813,102.379-108.406,181.639
			c36.962,93.281,152.237,118.236,224.54,48.367c13.621-13.152,25.872-27.679,39.151-41.171
			c15.595-15.896,34.268-24.751,56.95-20.476c9.526,1.81,18.876,5.418,27.823,9.285c19.3,8.373,37.671,19.335,57.502,25.892
			c73.863,24.475,141.917,16.293,200.093-28.46V0h-311.44c-1.219,2.09-2.417,4.2-3.572,6.349
			C813.084,27.561,804.994,50.586,795.693,72.908z"/>
	</g>
</g>
<g id="SUPERLIJM_VECTOR">
	<g>
		<path fill="#FFFFFF" d="M617.107,183.108c-4.761-2.121-8.969-3.049-12.622-2.784c-3.654,0.266-6.684,1.802-9.083,4.607
			c-2.4,2.806-3.466,6.062-3.196,9.77c0.19,2.618,1.164,5.355,2.924,8.215c1.758,2.859,5.581,7.361,11.467,13.503
			c5.886,6.143,10.437,11.511,13.649,16.107c3.212,4.596,5.044,10.004,5.496,16.226c0.563,7.752-1.311,14.212-5.623,19.382
			s-10.232,8.028-17.759,8.575c-4.146,0.301-9.308-0.558-15.485-2.576l-0.909-12.518c0.167,0.043,0.337,0.113,0.508,0.21
			c0.861,0.541,2.646,1.329,5.354,2.366s5.315,1.464,7.825,1.282c4.091-0.298,7.358-1.905,9.806-4.825
			c2.447-2.921,3.518-6.508,3.208-10.763c-0.214-2.945-1.086-5.623-2.616-8.035c-1.529-2.411-4.222-5.646-8.073-9.706
			l-10.234-10.874c-3.974-4.216-6.969-8.115-8.983-11.7c-2.017-3.586-3.21-7.943-3.582-13.075
			c-0.552-7.587,1.209-13.916,5.282-18.985c4.072-5.07,9.627-7.861,16.663-8.373c4.909-0.356,9.961,0.51,15.158,2.6L617.107,183.108
			z"/>
		<path fill="#FFFFFF" d="M691.46,244.244c1.265,17.399-5.904,26.666-21.503,27.799c-17.128,1.245-26.318-6.776-27.575-24.068
			l-5.785-79.606l13.909-1.011l5.357,73.716c0.575,7.909,1.653,13.327,3.237,16.255c1.583,2.929,4.667,4.227,9.248,3.894
			c4.582-0.333,7.329-2.137,8.242-5.411c0.914-3.273,1.075-8.974,0.484-17.102l-5.298-72.897l13.909-1.011L691.46,244.244z"/>
		<path fill="#FFFFFF" d="M705.311,163.21l22.99-1.67c14.943-1.087,23.133,8.217,24.563,27.905
			c0.571,7.854-0.303,14.128-2.621,18.82c-2.319,4.692-5.412,7.769-9.281,9.228c-3.87,1.462-9.646,2.524-17.328,3.192l3.324,45.735
			l-14.072,1.022L705.311,163.21z M722.844,209.805c5.944-0.433,10.11-1.94,12.501-4.528c2.39-2.585,3.32-7.506,2.793-14.761
			c-0.531-7.308-2.01-12.191-4.437-14.646c-2.428-2.455-6.94-3.443-13.539-2.964L722.844,209.805z"/>
		<path fill="#FFFFFF" d="M812.619,260.195l-37.718,2.741l-7.575-104.233l37.063-2.693l0.862,11.863l-23.153,1.683l2.402,33.054
			l21.436-1.558l0.862,11.863l-21.436,1.558l2.609,35.917l23.809-1.73L812.619,260.195z"/>
		<path fill="#FFFFFF" d="M874.962,255.665l-14.599,1.061l-19.883-47.739l-1.228,0.09l3.556,48.926l-14.072,1.022l-7.575-104.233
			l19.472-1.415c15.873-1.153,24.455,7.161,25.747,24.942c0.587,8.072-0.146,14.238-2.191,18.5
			c-2.049,4.261-5.644,7.621-10.781,10.077L874.962,255.665z M838.558,199.504c5.445-0.506,9.293-2.087,11.539-4.746
			c2.247-2.657,3.133-7.26,2.657-13.805c-0.456-6.271-1.886-10.664-4.289-13.177c-2.403-2.512-6.277-3.574-11.622-3.186l-0.818,0.06
			L838.558,199.504z"/>
		<path fill="#FFFFFF" d="M927.651,251.836l-37.717,2.741l-7.575-104.233l14.072-1.022l6.725,92.533l23.645-1.718L927.651,251.836z"
			/>
		<path fill="#FFFFFF" d="M938.894,146.235l14.072-1.022l7.575,104.233l-14.072,1.022L938.894,146.235z"/>
		<path fill="#FFFFFF" d="M1007.778,227.179c0.979,13.473-5.188,20.691-18.495,21.659c-3,0.218-7.574-0.108-13.724-0.978
			l-0.928-12.763c4.992,1.558,8.744,2.243,11.254,2.061c2.617-0.189,4.606-1.28,5.971-3.271c1.363-1.99,1.927-4.622,1.688-7.895
			l-6.053-83.288l14.072-1.022L1007.778,227.179z"/>
		<path fill="#FFFFFF" d="M1098.236,239.439l-12.984,0.943l-10.138-66.295l-0.328,0.023l-9.357,67.712l-8.754,0.637l-18.288-65.703
			l-0.412,0.03l-0.628,67.077l-13.153,0.956l2.652-104.977l12.166-0.884l19.815,72.007l0.327-0.023l9.53-74.14l12.159-0.884
			L1098.236,239.439z"/>
	</g>
</g>
</svg>
