<?xml version="1.0" encoding="utf-8"?>
<!-- Generator: Adobe Illustrator 16.0.0, SVG Export Plug-In . SVG Version: 6.00 Build 0)  -->
<!DOCTYPE svg PUBLIC "-//W3C//DTD SVG 1.1//EN" "http://www.w3.org/Graphics/SVG/1.1/DTD/svg11.dtd">
<svg version="1.1" id="Layer_1" xmlns="http://www.w3.org/2000/svg" xmlns:xlink="http://www.w3.org/1999/xlink" x="0px" y="0px"
	 width="600px" height="400px" viewBox="0 0 600 400" enable-background="new 0 0 600 400" xml:space="preserve">
<g id="Layer_3" display="none">
	<g id="Layer_2_copy" display="inline">
		<g>
			<path fill="#F36C27" d="M572.505,167.142c4.557,58.447-17.817,112.161-74.021,148.019
				c-55.739,35.558-113.576,33.894-170.102,0.202c-13.286-7.924-24.811-18.766-37.417-27.891
				c-5.854-4.233-12.029-8.324-18.63-11.152c-15.699-6.723-30.605-3.295-44.417,5.689c-11.747,7.641-22.925,16.18-34.857,23.508
				c-63.403,38.938-142.72,2.498-154.533-70.814c-10.035-62.288,44.097-120.565,107.337-113.936
				c17.754,1.862,34.953,9.089,52.379,13.947c3.994,1.114,7.823,2.84,11.83,3.895c22.575,5.947,39.307-0.428,52.786-19.629
				c10.283-14.645,19.807-29.989,31.438-43.498c63.915-74.231,182.486-70.967,243.13,5.878
				C555.783,104.624,567.008,130.57,572.505,167.142z"/>
		</g>
	</g>
</g>
<g id="Layer_2" display="none">
	<g display="inline">
		<path fill="#07737C" d="M571.066,236.29c-10.484,57.679-45.806,103.92-109.29,124.274c-62.959,20.185-118.463,3.84-164.54-43.142
			c-10.829-11.047-19.21-24.468-29.076-36.503c-4.581-5.585-9.512-11.113-15.174-15.531c-13.469-10.5-28.756-10.981-44.4-5.813
			c-13.306,4.395-26.291,9.805-39.696,13.852c-71.232,21.5-138.646-33.945-131.391-107.85
			c6.164-62.789,73.357-105.352,132.821-82.83c16.694,6.324,31.484,17.694,47.099,26.832c3.58,2.095,6.842,4.74,10.446,6.78
			c20.315,11.502,38.119,9.601,56.047-5.532c13.675-11.542,26.791-23.954,41.48-34.054C406.11,21.276,519.938,54.642,559,144.401
			C570.824,171.575,575.068,199.524,571.066,236.29z"/>
	</g>
</g>
<g id="Layer_2_copy_2" display="none">
	<g display="inline">
		<path fill="#07737C" d="M571.066,236.29c-10.484,57.679-45.806,103.92-109.29,124.274c-62.959,20.185-118.463,3.84-164.54-43.142
			c-10.829-11.047-19.21-24.468-29.076-36.503c-4.581-5.585-9.512-11.113-15.174-15.531c-13.469-10.5-28.756-10.981-44.4-5.813
			c-13.306,4.395-26.291,9.805-39.696,13.852c-71.232,21.5-138.646-33.945-131.391-107.85
			c6.164-62.789,73.357-105.352,132.821-82.83c16.694,6.324,31.484,17.694,47.099,26.832c3.58,2.095,6.842,4.74,10.446,6.78
			c20.315,11.502,38.119,9.601,56.047-5.532c13.675-11.542,26.791-23.954,41.48-34.054C406.11,21.276,519.938,54.642,559,144.401
			C570.824,171.575,575.068,199.524,571.066,236.29z"/>
	</g>
</g>
<g id="Layer_1_1_">
	<g>
		<g>
			<path fill="#00A7C0" d="M587.526,163.307c9.244,63.096-11.086,123.035-69.445,166.086
				c-57.876,42.688-120.768,45.137-184.591,12.729c-15.002-7.618-28.306-18.54-42.66-27.515
				c-6.662-4.164-13.666-8.148-21.038-10.733c-17.532-6.142-33.456-1.325-47.785,9.442c-12.187,9.155-23.69,19.247-36.102,28.076
				C119.959,388.313,31.2,354.599,12.987,275.905c-15.472-66.863,38.989-134.092,108.11-131.549
				c19.405,0.715,38.602,7.293,57.872,11.284c4.418,0.915,8.7,2.507,13.125,3.357c24.938,4.793,42.627-3.355,55.844-25.185
				c10.083-16.65,19.289-34.003,30.918-49.521C342.762-0.97,471.684-6.148,543.15,72.79
				C564.781,96.687,578.87,124.021,587.526,163.307z"/>
		</g>
	</g>
</g>
<g id="Layer_1_copy">
	<g>
		<g>
			<path fill="#008B99" d="M560.426,168.269c8.551,58.389-10.26,113.835-64.253,153.672
				c-53.538,39.492-111.743,41.76-170.795,11.776c-13.875-7.033-26.186-17.147-39.469-25.46c-6.159-3.843-12.643-7.539-19.457-9.931
				c-16.229-5.672-30.965-1.226-44.216,8.747c-11.281,8.459-21.917,17.795-33.411,25.966
				c-61.015,43.417-143.134,12.223-159.982-60.583C14.526,210.594,64.918,148.39,128.872,150.743
				c17.954,0.658,35.716,6.74,53.539,10.437c4.091,0.851,8.047,2.322,12.149,3.103c23.076,4.439,39.435-3.096,51.669-23.302
				c9.33-15.405,17.849-31.462,28.604-45.816c59.142-78.888,178.42-83.677,244.534-10.634
				C539.397,106.637,552.419,131.924,560.426,168.269z"/>
		</g>
	</g>
</g>
<g id="Layer_7">
</g>
<g id="Layer_8" display="none">
	<g display="inline">
		<path fill="#0C3744" d="M466.883,93.068h2.283v39.812h-2.283v-14.685c0-2.391-0.438-4.676-1.307-6.853
			c-0.872-2.172-1.744-3.916-2.609-5.221c-5.223-9.57-12.563-17.239-22.027-23.006c-9.464-5.762-20.069-8.648-31.817-8.648
			c-7.616,0-14.848,1.361-21.699,4.079c-6.854,2.723-13.109,6.364-18.765,10.932c-2.61,2.396-4.682,5.17-6.201,8.321
			c-1.523,3.156-2.283,6.583-2.283,10.279c0,4.788,1.25,9.086,3.753,12.89c2.499,3.809,5.711,6.802,9.627,8.974l67.876,33.612
			c11.748,6.093,21.375,14.848,28.88,26.269c7.506,11.421,11.259,24.312,11.259,38.67c0,10.009-1.907,19.364-5.711,28.063
			c-3.809,8.703-8.974,16.315-15.501,22.844c-6.526,6.525-14.195,11.695-23.006,15.5c-8.812,3.809-18.224,5.711-28.229,5.711
			c-9.788,0-19.038-1.846-27.736-5.549c-8.704-3.695-16.316-8.754-22.843-15.174c-6.527-6.414-11.697-13.977-15.501-22.68
			c-3.81-8.699-5.823-17.948-6.037-27.738v-0.652v-0.325c0-6.308,2.229-11.636,6.688-15.99c4.457-4.351,9.841-6.526,16.153-6.526
			c6.308,0,11.691,2.233,16.153,6.689c4.455,4.461,6.688,9.846,6.688,16.152c0,6.313-2.233,11.697-6.688,16.154
			c-4.461,4.461-9.847,6.688-16.153,6.688c-4.135,0-7.888-0.979-11.258-2.937c-3.376-1.959-6.037-4.57-7.995-7.832
			c1.52,8.271,4.349,15.883,8.483,22.842c4.131,6.966,9.244,13.002,15.338,18.111c6.089,5.114,12.94,9.137,20.56,12.074
			c7.612,2.938,15.663,4.405,24.146,4.405c10.877,0,20.938-2.284,30.187-6.854c9.244-4.569,17.021-10.657,23.333-18.273
			c4.349-5.003,6.526-10.983,6.526-17.948c0-5.655-1.418-10.657-4.242-15.012c-2.83-4.35-6.526-7.721-11.097-10.116L380.731,193.9
			l-0.326-0.326c-10.441-5.221-18.927-12.941-25.453-23.169c-6.525-10.223-9.79-21.645-9.79-34.264
			c0-8.699,1.684-16.969,5.059-24.801c3.371-7.832,7.938-14.628,13.706-20.396c5.762-5.762,12.508-10.33,20.231-13.706
			c7.721-3.37,16.041-5.058,24.964-5.058c11.311,0,21.646,2.611,31.003,7.832c9.351,5.221,16.855,12.186,22.517,20.885
			c0.652,1.091,1.52,1.469,2.61,1.142c1.086-0.326,1.632-1.142,1.632-2.447V93.068L466.883,93.068z"/>
	</g>
</g>
<g>
	<path fill="#FFFFFF" d="M92.059,206.072c-4.306-1.92-8.113-2.76-11.419-2.52c-3.307,0.24-6.047,1.631-8.217,4.168
		c-2.173,2.539-3.137,5.484-2.894,8.839c0.172,2.368,1.054,4.847,2.645,7.434c1.593,2.587,5.051,6.66,10.376,12.217
		c5.326,5.557,9.443,10.415,12.35,14.573c2.907,4.158,4.564,9.051,4.974,14.68c0.51,7.014-1.187,12.859-5.089,17.537
		c-3.9,4.678-9.258,7.264-16.067,7.758c-3.751,0.273-8.422-0.504-14.011-2.33l-0.823-11.326c0.152,0.039,0.306,0.102,0.461,0.189
		c0.779,0.49,2.395,1.203,4.844,2.141c2.449,0.939,4.809,1.326,7.078,1.16c3.701-0.269,6.659-1.723,8.874-4.365
		c2.213-2.642,3.181-5.887,2.901-9.736c-0.193-2.665-0.982-5.088-2.366-7.27c-1.385-2.182-3.819-5.11-7.304-8.783l-9.26-9.838
		c-3.596-3.814-6.307-7.343-8.129-10.587c-1.824-3.244-2.903-7.187-3.241-11.829c-0.499-6.864,1.095-12.59,4.779-17.178
		c3.685-4.587,8.711-7.113,15.077-7.575c4.441-0.323,9.012,0.461,13.713,2.352L92.059,206.072z"/>
	<path fill="#FFFFFF" d="M159.331,261.385c1.145,15.742-5.341,24.127-19.454,25.152c-15.496,1.126-23.813-6.133-24.949-21.777
		l-5.234-72.024l12.585-0.915l4.847,66.695c0.52,7.156,1.496,12.059,2.929,14.707c1.432,2.65,4.222,3.824,8.367,3.522
		c4.146-0.301,6.632-1.933,7.458-4.896c0.826-2.962,0.973-8.119,0.438-15.473l-4.793-65.955l12.584-0.914L159.331,261.385z"/>
	<path fill="#FFFFFF" d="M171.864,188.068l20.8-1.511c13.521-0.983,20.931,7.434,22.225,25.249
		c0.517,7.106-0.274,12.782-2.372,17.026c-2.098,4.246-4.896,7.029-8.396,8.35c-3.502,1.322-8.728,2.285-15.679,2.889l3.007,41.379
		l-12.73,0.926L171.864,188.068z M187.726,230.225c5.379-0.391,9.148-1.756,11.311-4.096s3.005-6.791,2.527-13.355
		c-0.48-6.612-1.819-11.029-4.014-13.251c-2.197-2.222-6.28-3.115-12.251-2.681L187.726,230.225z"/>
	<path fill="#FFFFFF" d="M268.951,275.817l-34.125,2.479l-6.854-94.306l33.533-2.437l0.779,10.733l-20.949,1.522l2.174,29.906
		l19.395-1.409l0.78,10.732l-19.395,1.41l2.361,32.496l21.541-1.565L268.951,275.817z"/>
	<path fill="#FFFFFF" d="M325.358,271.719l-13.209,0.959l-17.99-43.192l-1.11,0.081l3.218,44.266l-12.732,0.926l-6.853-94.307
		l17.617-1.28c14.36-1.043,22.125,6.479,23.294,22.566c0.531,7.304-0.131,12.884-1.983,16.739c-1.854,3.855-5.104,6.895-9.755,9.117
		L325.358,271.719z M292.419,220.905c4.928-0.457,8.407-1.888,10.44-4.293c2.032-2.405,2.834-6.569,2.404-12.491
		c-0.413-5.674-1.706-9.648-3.881-11.922c-2.174-2.272-5.68-3.233-10.516-2.882l-0.74,0.054L292.419,220.905z"/>
	<path fill="#FFFFFF" d="M373.028,268.254l-34.125,2.48l-6.853-94.307l12.732-0.925l6.084,83.72l21.393-1.555L373.028,268.254z"/>
	<path fill="#FFFFFF" d="M383.2,172.71l12.732-0.925l6.853,94.307l-12.732,0.925L383.2,172.71z"/>
	<path fill="#FFFFFF" d="M445.524,245.944c0.886,12.189-4.692,18.722-16.732,19.597c-2.715,0.197-6.854-0.098-12.418-0.884
		l-0.839-11.548c4.518,1.408,7.911,2.03,10.182,1.865c2.368-0.172,4.169-1.159,5.403-2.961c1.232-1.801,1.742-4.182,1.526-7.143
		l-5.476-75.356l12.732-0.925L445.524,245.944z"/>
	<path fill="#FFFFFF" d="M527.367,257.038l-11.748,0.854l-9.173-59.981l-0.297,0.021l-8.466,61.263l-7.92,0.575l-16.547-59.445
		l-0.372,0.027l-0.569,60.688l-11.9,0.865l2.4-94.979l11.007-0.8l17.929,65.149l0.296-0.021l8.622-67.079l11.002-0.8
		L527.367,257.038z"/>
</g>
</svg>
