<?xml version="1.0" encoding="utf-8"?>
<!-- Generator: Adobe Illustrator 16.0.0, SVG Export Plug-In . SVG Version: 6.00 Build 0)  -->
<!DOCTYPE svg PUBLIC "-//W3C//DTD SVG 1.1//EN" "http://www.w3.org/Graphics/SVG/1.1/DTD/svg11.dtd">
<svg version="1.1" xmlns="http://www.w3.org/2000/svg" xmlns:xlink="http://www.w3.org/1999/xlink" x="0px" y="0px"
	 width="684.031px" height="384.883px" viewBox="0 0 684.031 384.883" enable-background="new 0 0 684.031 384.883"
	 xml:space="preserve">
<g id="Layer_1" display="none">
	<g id="Layer_1_1_" display="inline">
		<g>
			<path fill="#244E52" d="M658.01,296.086c-0.715,11.595-0.76,31.533-7.076,39.36c-11.661,14.021-27.551,20.677-48.741,20.431
				c-18.867-1.729-88.841-2.479-107.28-0.383c-34.5,3.918-48.409,4.729-69.183,29.389h258.303V223.338
				C656.729,246.801,659.231,271.439,658.01,296.086z"/>
			<path display="none" opacity="0.5" fill="#244E52" enable-background="new    " d="M596.035,337.118
				c-6.047-0.24-12.051-1.496-18.1-1.824c-26.383-1.437-53.188-6.321-79.094-3.381c-38.766,4.401-71.623,24.637-94.185,52.971
				h21.069c20.773-24.658,50.217-42.131,84.718-46.049c18.438-2.099,37.373,0.09,56.24,1.818c5.654,0.52,11.304,0.997,16.932,1.307
				c5.603,0.308,11.148,1.469,16.75,1.684c0.985,0.04,1.959,0.064,2.923,0.076c21.189,0.244,37.079-6.408,48.74-20.43
				c1.062-1.274,2.086-2.61,3.076-4.008c3.469-4.889,6.521-10.527,9.188-16.933c0.581-1.396,1.157-2.793,1.729-4.192
				c5.979-14.607,11.566-29.441,18.008-43.813v-8.219c-6.613,15.295-12.5,30.98-18.905,46.362
				C651.955,324.122,630.104,338.484,596.035,337.118z"/>
		</g>
	</g>
	<g id="Layer_2">
		<path display="inline" fill="#244E52" d="M677.28,112.917c-14.098,0-15.98,31.818-15.98,71.67c0,14.537,0.251,30.14,0.251,45.66
			c0,54.808-65.273,102.211-93.603,104.068c-42.57-2.166-194.706-2.018-234.004,50.568h350.088V114.898
			C681.518,113.555,679.276,112.917,677.28,112.917z"/>
	</g>
</g>
<g id="Layer_2_1_">
	<polygon display="none" fill="#244E52" points="684.031,299.941 599.089,384.883 684.031,384.883 	"/>
	<polygon display="none" fill="#244E52" points="0,299.941 84.943,384.883 0,384.883 	"/>
	<path fill="#E6E4DE" d="M661.561,352.412c0,5.521-4.479,10.001-10,10.001c-5.521,0-10-4.479-10-10.001
		c0-5.521,4.479-9.999,10-9.999C657.081,342.413,661.561,346.891,661.561,352.412z"/>
	<path display="none" fill="#E6E4DE" d="M42.471,352.412c0,5.521-4.479,10.001-10,10.001c-5.521,0-10-4.479-10-10.001
		c0-5.521,4.479-9.999,10-9.999C37.992,342.413,42.471,346.891,42.471,352.412z"/>
	<circle display="none" fill="#244E52" cx="42.471" cy="342.412" r="14.528"/>
</g>
</svg>
