<?xml version="1.0" encoding="utf-8"?>
<!-- Generator: Adobe Illustrator 16.0.0, SVG Export Plug-In . SVG Version: 6.00 Build 0)  -->
<!DOCTYPE svg PUBLIC "-//W3C//DTD SVG 1.1//EN" "http://www.w3.org/Graphics/SVG/1.1/DTD/svg11.dtd">
<svg version="1.1" id="Layer_1" xmlns="http://www.w3.org/2000/svg" xmlns:xlink="http://www.w3.org/1999/xlink" x="0px" y="0px"
	 width="54px" height="54px" viewBox="0 0 54 54" enable-background="new 0 0 54 54" xml:space="preserve">
<path fill-rule="evenodd" clip-rule="evenodd" d="M46.266,27.299c-1.514-3.216-3.497-6.138-5.571-9.006
	c-3.181-4.398-6.375-8.787-9.525-13.207C29.996,3.439,27.797,0,27.797,0l-7.692,11.193c-2.763,3.516-5.59,6.988-8.201,10.615
	c-2.643,3.671-4.202,7.796-4.525,12.377c-0.337,4.776,0.976,9.009,4.14,12.544c5.543,6.194,12.559,8.274,20.647,6.834
	c4.461-0.794,8.274-2.909,11.346-6.255c3.007-3.274,4.667-7.139,4.76-11.616C48.333,32.727,47.518,29.96,46.266,27.299z"/>
</svg>
